<svg width="1920" height="1334" viewBox="0 0 1920 1334" fill="none" xmlns="http://www.w3.org/2000/svg">
    <path
        d="M-29 1005C7.36666 987.667 43.7333 987.667 80.1 1005C116.467 1022.33 152.833 1022.33 189.2 1005C225.567 987.667 261.933 987.667 298.3 1005C334.667 1022.33 371.033 1022.33 407.4 1005C443.767 987.667 480.133 987.667 516.5 1005C552.867 1022.33 589.233 1022.33 625.6 1005C661.967 987.667 698.333 987.667 734.7 1005C771.067 1022.33 807.433 1022.33 843.8 1005C880.167 987.667 916.533 987.667 952.9 1005C989.267 1022.33 1025.63 1022.33 1062 1005C1098.37 987.667 1134.73 987.667 1171.1 1005C1207.47 1022.33 1243.83 1022.33 1280.2 1005C1316.57 987.667 1352.93 987.667 1389.3 1005C1425.67 1022.33 1462.03 1022.33 1498.4 1005C1534.77 987.667 1571.13 987.667 1607.5 1005C1643.87 1022.33 1680.23 1022.33 1716.6 1005C1752.97 987.667 1789.33 987.667 1825.7 1005C1862.07 1022.33 1898.43 1022.33 1934.8 1005C1971.17 987.667 2007.53 987.667 2043.9 1005C2080.27 1022.33 2116.63 1022.33 2153 1005"
        stroke="red" stroke-width="2" />
    <path
        d="M-29 1020C7.36666 1002.67 43.7333 1002.67 80.1 1020C116.467 1037.33 152.833 1037.33 189.2 1020C225.567 1002.67 261.933 1002.67 298.3 1020C334.667 1037.33 371.033 1037.33 407.4 1020C443.767 1002.67 480.133 1002.67 516.5 1020C552.867 1037.33 589.233 1037.33 625.6 1020C661.967 1002.67 698.333 1002.67 734.7 1020C771.067 1037.33 807.433 1037.33 843.8 1020C880.167 1002.67 916.533 1002.67 952.9 1020C989.267 1037.33 1025.63 1037.33 1062 1020C1098.37 1002.67 1134.73 1002.67 1171.1 1020C1207.47 1037.33 1243.83 1037.33 1280.2 1020C1316.57 1002.67 1352.93 1002.67 1389.3 1020C1425.67 1037.33 1462.03 1037.33 1498.4 1020C1534.77 1002.67 1571.13 1002.67 1607.5 1020C1643.87 1037.33 1680.23 1037.33 1716.6 1020C1752.97 1002.67 1789.33 1002.67 1825.7 1020C1862.07 1037.33 1898.43 1037.33 1934.8 1020C1971.17 1002.67 2007.53 1002.67 2043.9 1020C2080.27 1037.33 2116.63 1037.33 2153 1020"
        stroke="red" stroke-width="2" />
    <path
        d="M-29 1035C7.36666 1017.67 43.7333 1017.67 80.1 1035C116.467 1052.33 152.833 1052.33 189.2 1035C225.567 1017.67 261.933 1017.67 298.3 1035C334.667 1052.33 371.033 1052.33 407.4 1035C443.767 1017.67 480.133 1017.67 516.5 1035C552.867 1052.33 589.233 1052.33 625.6 1035C661.967 1017.67 698.333 1017.67 734.7 1035C771.067 1052.33 807.433 1052.33 843.8 1035C880.167 1017.67 916.533 1017.67 952.9 1035C989.267 1052.33 1025.63 1052.33 1062 1035C1098.37 1017.67 1134.73 1017.67 1171.1 1035C1207.47 1052.33 1243.83 1052.33 1280.2 1035C1316.57 1017.67 1352.93 1017.67 1389.3 1035C1425.67 1052.33 1462.03 1052.33 1498.4 1035C1534.77 1017.67 1571.13 1017.67 1607.5 1035C1643.87 1052.33 1680.23 1052.33 1716.6 1035C1752.97 1017.67 1789.33 1017.67 1825.7 1035C1862.07 1052.33 1898.43 1052.33 1934.8 1035C1971.17 1017.67 2007.53 1017.67 2043.9 1035C2080.27 1052.33 2116.63 1052.33 2153 1035"
        stroke="red" stroke-width="2" />
    <path
        d="M-29 1050C7.36666 1032.67 43.7333 1032.67 80.1 1050C116.467 1067.33 152.833 1067.33 189.2 1050C225.567 1032.67 261.933 1032.67 298.3 1050C334.667 1067.33 371.033 1067.33 407.4 1050C443.767 1032.67 480.133 1032.67 516.5 1050C552.867 1067.33 589.233 1067.33 625.6 1050C661.967 1032.67 698.333 1032.67 734.7 1050C771.067 1067.33 807.433 1067.33 843.8 1050C880.167 1032.67 916.533 1032.67 952.9 1050C989.267 1067.33 1025.63 1067.33 1062 1050C1098.37 1032.67 1134.73 1032.67 1171.1 1050C1207.47 1067.33 1243.83 1067.33 1280.2 1050C1316.57 1032.67 1352.93 1032.67 1389.3 1050C1425.67 1067.33 1462.03 1067.33 1498.4 1050C1534.77 1032.67 1571.13 1032.67 1607.5 1050C1643.87 1067.33 1680.23 1067.33 1716.6 1050C1752.97 1032.67 1789.33 1032.67 1825.7 1050C1862.07 1067.33 1898.43 1067.33 1934.8 1050C1971.17 1032.67 2007.53 1032.67 2043.9 1050C2080.27 1067.33 2116.63 1067.33 2153 1050"
        stroke="red" stroke-width="2" />
    <path
        d="M-29 1065C7.36666 1047.67 43.7333 1047.67 80.1 1065C116.467 1082.33 152.833 1082.33 189.2 1065C225.567 1047.67 261.933 1047.67 298.3 1065C334.667 1082.33 371.033 1082.33 407.4 1065C443.767 1047.67 480.133 1047.67 516.5 1065C552.867 1082.33 589.233 1082.33 625.6 1065C661.967 1047.67 698.333 1047.67 734.7 1065C771.067 1082.33 807.433 1082.33 843.8 1065C880.167 1047.67 916.533 1047.67 952.9 1065C989.267 1082.33 1025.63 1082.33 1062 1065C1098.37 1047.67 1134.73 1047.67 1171.1 1065C1207.47 1082.33 1243.83 1082.33 1280.2 1065C1316.57 1047.67 1352.93 1047.67 1389.3 1065C1425.67 1082.33 1462.03 1082.33 1498.4 1065C1534.77 1047.67 1571.13 1047.67 1607.5 1065C1643.87 1082.33 1680.23 1082.33 1716.6 1065C1752.97 1047.67 1789.33 1047.67 1825.7 1065C1862.07 1082.33 1898.43 1082.33 1934.8 1065C1971.17 1047.67 2007.53 1047.67 2043.9 1065C2080.27 1082.33 2116.63 1082.33 2153 1065"
        stroke="red" stroke-width="2" />
    <path
        d="M-29 1080C7.36666 1062.67 43.7333 1062.67 80.1 1080C116.467 1097.33 152.833 1097.33 189.2 1080C225.567 1062.67 261.933 1062.67 298.3 1080C334.667 1097.33 371.033 1097.33 407.4 1080C443.767 1062.67 480.133 1062.67 516.5 1080C552.867 1097.33 589.233 1097.33 625.6 1080C661.967 1062.67 698.333 1062.67 734.7 1080C771.067 1097.33 807.433 1097.33 843.8 1080C880.167 1062.67 916.533 1062.67 952.9 1080C989.267 1097.33 1025.63 1097.33 1062 1080C1098.37 1062.67 1134.73 1062.67 1171.1 1080C1207.47 1097.33 1243.83 1097.33 1280.2 1080C1316.57 1062.67 1352.93 1062.67 1389.3 1080C1425.67 1097.33 1462.03 1097.33 1498.4 1080C1534.77 1062.67 1571.13 1062.67 1607.5 1080C1643.87 1097.33 1680.23 1097.33 1716.6 1080C1752.97 1062.67 1789.33 1062.67 1825.7 1080C1862.07 1097.33 1898.43 1097.33 1934.8 1080C1971.17 1062.67 2007.53 1062.67 2043.9 1080C2080.27 1097.33 2116.63 1097.33 2153 1080"
        stroke="red" stroke-width="2" />
    <path
        d="M-29 1095C7.36666 1077.67 43.7333 1077.67 80.1 1095C116.467 1112.33 152.833 1112.33 189.2 1095C225.567 1077.67 261.933 1077.67 298.3 1095C334.667 1112.33 371.033 1112.33 407.4 1095C443.767 1077.67 480.133 1077.67 516.5 1095C552.867 1112.33 589.233 1112.33 625.6 1095C661.967 1077.67 698.333 1077.67 734.7 1095C771.067 1112.33 807.433 1112.33 843.8 1095C880.167 1077.67 916.533 1077.67 952.9 1095C989.267 1112.33 1025.63 1112.33 1062 1095C1098.37 1077.67 1134.73 1077.67 1171.1 1095C1207.47 1112.33 1243.83 1112.33 1280.2 1095C1316.57 1077.67 1352.93 1077.67 1389.3 1095C1425.67 1112.33 1462.03 1112.33 1498.4 1095C1534.77 1077.67 1571.13 1077.67 1607.5 1095C1643.87 1112.33 1680.23 1112.33 1716.6 1095C1752.97 1077.67 1789.33 1077.67 1825.7 1095C1862.07 1112.33 1898.43 1112.33 1934.8 1095C1971.17 1077.67 2007.53 1077.67 2043.9 1095C2080.27 1112.33 2116.63 1112.33 2153 1095"
        stroke="red" stroke-width="2" />
    <path
        d="M-29 1110C7.36666 1092.67 43.7333 1092.67 80.1 1110C116.467 1127.33 152.833 1127.33 189.2 1110C225.567 1092.67 261.933 1092.67 298.3 1110C334.667 1127.33 371.033 1127.33 407.4 1110C443.767 1092.67 480.133 1092.67 516.5 1110C552.867 1127.33 589.233 1127.33 625.6 1110C661.967 1092.67 698.333 1092.67 734.7 1110C771.067 1127.33 807.433 1127.33 843.8 1110C880.167 1092.67 916.533 1092.67 952.9 1110C989.267 1127.33 1025.63 1127.33 1062 1110C1098.37 1092.67 1134.73 1092.67 1171.1 1110C1207.47 1127.33 1243.83 1127.33 1280.2 1110C1316.57 1092.67 1352.93 1092.67 1389.3 1110C1425.67 1127.33 1462.03 1127.33 1498.4 1110C1534.77 1092.67 1571.13 1092.67 1607.5 1110C1643.87 1127.33 1680.23 1127.33 1716.6 1110C1752.97 1092.67 1789.33 1092.67 1825.7 1110C1862.07 1127.33 1898.43 1127.33 1934.8 1110C1971.17 1092.67 2007.53 1092.67 2043.9 1110C2080.27 1127.33 2116.63 1127.33 2153 1110"
        stroke="red" stroke-width="2" />
    <path
        d="M-29 1125C7.36666 1107.67 43.7333 1107.67 80.1 1125C116.467 1142.33 152.833 1142.33 189.2 1125C225.567 1107.67 261.933 1107.67 298.3 1125C334.667 1142.33 371.033 1142.33 407.4 1125C443.767 1107.67 480.133 1107.67 516.5 1125C552.867 1142.33 589.233 1142.33 625.6 1125C661.967 1107.67 698.333 1107.67 734.7 1125C771.067 1142.33 807.433 1142.33 843.8 1125C880.167 1107.67 916.533 1107.67 952.9 1125C989.267 1142.33 1025.63 1142.33 1062 1125C1098.37 1107.67 1134.73 1107.67 1171.1 1125C1207.47 1142.33 1243.83 1142.33 1280.2 1125C1316.57 1107.67 1352.93 1107.67 1389.3 1125C1425.67 1142.33 1462.03 1142.33 1498.4 1125C1534.77 1107.67 1571.13 1107.67 1607.5 1125C1643.87 1142.33 1680.23 1142.33 1716.6 1125C1752.97 1107.67 1789.33 1107.67 1825.7 1125C1862.07 1142.33 1898.43 1142.33 1934.8 1125C1971.17 1107.67 2007.53 1107.67 2043.9 1125C2080.27 1142.33 2116.63 1142.33 2153 1125"
        stroke="red" stroke-width="2" />
    <path
        d="M-29 1140C7.36666 1122.67 43.7333 1122.67 80.1 1140C116.467 1157.33 152.833 1157.33 189.2 1140C225.567 1122.67 261.933 1122.67 298.3 1140C334.667 1157.33 371.033 1157.33 407.4 1140C443.767 1122.67 480.133 1122.67 516.5 1140C552.867 1157.33 589.233 1157.33 625.6 1140C661.967 1122.67 698.333 1122.67 734.7 1140C771.067 1157.33 807.433 1157.33 843.8 1140C880.167 1122.67 916.533 1122.67 952.9 1140C989.267 1157.33 1025.63 1157.33 1062 1140C1098.37 1122.67 1134.73 1122.67 1171.1 1140C1207.47 1157.33 1243.83 1157.33 1280.2 1140C1316.57 1122.67 1352.93 1122.67 1389.3 1140C1425.67 1157.33 1462.03 1157.33 1498.4 1140C1534.77 1122.67 1571.13 1122.67 1607.5 1140C1643.87 1157.33 1680.23 1157.33 1716.6 1140C1752.97 1122.67 1789.33 1122.67 1825.7 1140C1862.07 1157.33 1898.43 1157.33 1934.8 1140C1971.17 1122.67 2007.53 1122.67 2043.9 1140C2080.27 1157.33 2116.63 1157.33 2153 1140"
        stroke="red" stroke-width="2" />
    <path
        d="M-29 1155C7.36666 1137.67 43.7333 1137.67 80.1 1155C116.467 1172.33 152.833 1172.33 189.2 1155C225.567 1137.67 261.933 1137.67 298.3 1155C334.667 1172.33 371.033 1172.33 407.4 1155C443.767 1137.67 480.133 1137.67 516.5 1155C552.867 1172.33 589.233 1172.33 625.6 1155C661.967 1137.67 698.333 1137.67 734.7 1155C771.067 1172.33 807.433 1172.33 843.8 1155C880.167 1137.67 916.533 1137.67 952.9 1155C989.267 1172.33 1025.63 1172.33 1062 1155C1098.37 1137.67 1134.73 1137.67 1171.1 1155C1207.47 1172.33 1243.83 1172.33 1280.2 1155C1316.57 1137.67 1352.93 1137.67 1389.3 1155C1425.67 1172.33 1462.03 1172.33 1498.4 1155C1534.77 1137.67 1571.13 1137.67 1607.5 1155C1643.87 1172.33 1680.23 1172.33 1716.6 1155C1752.97 1137.67 1789.33 1137.67 1825.7 1155C1862.07 1172.33 1898.43 1172.33 1934.8 1155C1971.17 1137.67 2007.53 1137.67 2043.9 1155C2080.27 1172.33 2116.63 1172.33 2153 1155"
        stroke="red" stroke-width="2" />
    <path
        d="M-29 1170C7.36666 1152.67 43.7333 1152.67 80.1 1170C116.467 1187.33 152.833 1187.33 189.2 1170C225.567 1152.67 261.933 1152.67 298.3 1170C334.667 1187.33 371.033 1187.33 407.4 1170C443.767 1152.67 480.133 1152.67 516.5 1170C552.867 1187.33 589.233 1187.33 625.6 1170C661.967 1152.67 698.333 1152.67 734.7 1170C771.067 1187.33 807.433 1187.33 843.8 1170C880.167 1152.67 916.533 1152.67 952.9 1170C989.267 1187.33 1025.63 1187.33 1062 1170C1098.37 1152.67 1134.73 1152.67 1171.1 1170C1207.47 1187.33 1243.83 1187.33 1280.2 1170C1316.57 1152.67 1352.93 1152.67 1389.3 1170C1425.67 1187.33 1462.03 1187.33 1498.4 1170C1534.77 1152.67 1571.13 1152.67 1607.5 1170C1643.87 1187.33 1680.23 1187.33 1716.6 1170C1752.97 1152.67 1789.33 1152.67 1825.7 1170C1862.07 1187.33 1898.43 1187.33 1934.8 1170C1971.17 1152.67 2007.53 1152.67 2043.9 1170C2080.27 1187.33 2116.63 1187.33 2153 1170"
        stroke="red" stroke-width="2" />
    <path
        d="M-29 1185C7.36666 1167.67 43.7333 1167.67 80.1 1185C116.467 1202.33 152.833 1202.33 189.2 1185C225.567 1167.67 261.933 1167.67 298.3 1185C334.667 1202.33 371.033 1202.33 407.4 1185C443.767 1167.67 480.133 1167.67 516.5 1185C552.867 1202.33 589.233 1202.33 625.6 1185C661.967 1167.67 698.333 1167.67 734.7 1185C771.067 1202.33 807.433 1202.33 843.8 1185C880.167 1167.67 916.533 1167.67 952.9 1185C989.267 1202.33 1025.63 1202.33 1062 1185C1098.37 1167.67 1134.73 1167.67 1171.1 1185C1207.47 1202.33 1243.83 1202.33 1280.2 1185C1316.57 1167.67 1352.93 1167.67 1389.3 1185C1425.67 1202.33 1462.03 1202.33 1498.4 1185C1534.77 1167.67 1571.13 1167.67 1607.5 1185C1643.87 1202.33 1680.23 1202.33 1716.6 1185C1752.97 1167.67 1789.33 1167.67 1825.7 1185C1862.07 1202.33 1898.43 1202.33 1934.8 1185C1971.17 1167.67 2007.53 1167.67 2043.9 1185C2080.27 1202.33 2116.63 1202.33 2153 1185"
        stroke="red" stroke-width="2" />
    <path
        d="M-29 1200C7.36666 1182.67 43.7333 1182.67 80.1 1200C116.467 1217.33 152.833 1217.33 189.2 1200C225.567 1182.67 261.933 1182.67 298.3 1200C334.667 1217.33 371.033 1217.33 407.4 1200C443.767 1182.67 480.133 1182.67 516.5 1200C552.867 1217.33 589.233 1217.33 625.6 1200C661.967 1182.67 698.333 1182.67 734.7 1200C771.067 1217.33 807.433 1217.33 843.8 1200C880.167 1182.67 916.533 1182.67 952.9 1200C989.267 1217.33 1025.63 1217.33 1062 1200C1098.37 1182.67 1134.73 1182.67 1171.1 1200C1207.47 1217.33 1243.83 1217.33 1280.2 1200C1316.57 1182.67 1352.93 1182.67 1389.3 1200C1425.67 1217.33 1462.03 1217.33 1498.4 1200C1534.77 1182.67 1571.13 1182.67 1607.5 1200C1643.87 1217.33 1680.23 1217.33 1716.6 1200C1752.97 1182.67 1789.33 1182.67 1825.7 1200C1862.07 1217.33 1898.43 1217.33 1934.8 1200C1971.17 1182.67 2007.53 1182.67 2043.9 1200C2080.27 1217.33 2116.63 1217.33 2153 1200"
        stroke="red" stroke-width="2" />
    <path
        d="M-29 1215C7.36666 1197.67 43.7333 1197.67 80.1 1215C116.467 1232.33 152.833 1232.33 189.2 1215C225.567 1197.67 261.933 1197.67 298.3 1215C334.667 1232.33 371.033 1232.33 407.4 1215C443.767 1197.67 480.133 1197.67 516.5 1215C552.867 1232.33 589.233 1232.33 625.6 1215C661.967 1197.67 698.333 1197.67 734.7 1215C771.067 1232.33 807.433 1232.33 843.8 1215C880.167 1197.67 916.533 1197.67 952.9 1215C989.267 1232.33 1025.63 1232.33 1062 1215C1098.37 1197.67 1134.73 1197.67 1171.1 1215C1207.47 1232.33 1243.83 1232.33 1280.2 1215C1316.57 1197.67 1352.93 1197.67 1389.3 1215C1425.67 1232.33 1462.03 1232.33 1498.4 1215C1534.77 1197.67 1571.13 1197.67 1607.5 1215C1643.87 1232.33 1680.23 1232.33 1716.6 1215C1752.97 1197.67 1789.33 1197.67 1825.7 1215C1862.07 1232.33 1898.43 1232.33 1934.8 1215C1971.17 1197.67 2007.53 1197.67 2043.9 1215C2080.27 1232.33 2116.63 1232.33 2153 1215"
        stroke="red" stroke-width="2" />
    <path
        d="M-29 1230C7.36666 1212.67 43.7333 1212.67 80.1 1230C116.467 1247.33 152.833 1247.33 189.2 1230C225.567 1212.67 261.933 1212.67 298.3 1230C334.667 1247.33 371.033 1247.33 407.4 1230C443.767 1212.67 480.133 1212.67 516.5 1230C552.867 1247.33 589.233 1247.33 625.6 1230C661.967 1212.67 698.333 1212.67 734.7 1230C771.067 1247.33 807.433 1247.33 843.8 1230C880.167 1212.67 916.533 1212.67 952.9 1230C989.267 1247.33 1025.63 1247.33 1062 1230C1098.37 1212.67 1134.73 1212.67 1171.1 1230C1207.47 1247.33 1243.83 1247.33 1280.2 1230C1316.57 1212.67 1352.93 1212.67 1389.3 1230C1425.67 1247.33 1462.03 1247.33 1498.4 1230C1534.77 1212.67 1571.13 1212.67 1607.5 1230C1643.87 1247.33 1680.23 1247.33 1716.6 1230C1752.97 1212.67 1789.33 1212.67 1825.7 1230C1862.07 1247.33 1898.43 1247.33 1934.8 1230C1971.17 1212.67 2007.53 1212.67 2043.9 1230C2080.27 1247.33 2116.63 1247.33 2153 1230"
        stroke="red" stroke-width="2" />
    <path
        d="M-29 1245C7.36666 1227.67 43.7333 1227.67 80.1 1245C116.467 1262.33 152.833 1262.33 189.2 1245C225.567 1227.67 261.933 1227.67 298.3 1245C334.667 1262.33 371.033 1262.33 407.4 1245C443.767 1227.67 480.133 1227.67 516.5 1245C552.867 1262.33 589.233 1262.33 625.6 1245C661.967 1227.67 698.333 1227.67 734.7 1245C771.067 1262.33 807.433 1262.33 843.8 1245C880.167 1227.67 916.533 1227.67 952.9 1245C989.267 1262.33 1025.63 1262.33 1062 1245C1098.37 1227.67 1134.73 1227.67 1171.1 1245C1207.47 1262.33 1243.83 1262.33 1280.2 1245C1316.57 1227.67 1352.93 1227.67 1389.3 1245C1425.67 1262.33 1462.03 1262.33 1498.4 1245C1534.77 1227.67 1571.13 1227.67 1607.5 1245C1643.87 1262.33 1680.23 1262.33 1716.6 1245C1752.97 1227.67 1789.33 1227.67 1825.7 1245C1862.07 1262.33 1898.43 1262.33 1934.8 1245C1971.17 1227.67 2007.53 1227.67 2043.9 1245C2080.27 1262.33 2116.63 1262.33 2153 1245"
        stroke="red" stroke-width="2" />
    <path
        d="M-29 1260C7.36666 1242.67 43.7333 1242.67 80.1 1260C116.467 1277.33 152.833 1277.33 189.2 1260C225.567 1242.67 261.933 1242.67 298.3 1260C334.667 1277.33 371.033 1277.33 407.4 1260C443.767 1242.67 480.133 1242.67 516.5 1260C552.867 1277.33 589.233 1277.33 625.6 1260C661.967 1242.67 698.333 1242.67 734.7 1260C771.067 1277.33 807.433 1277.33 843.8 1260C880.167 1242.67 916.533 1242.67 952.9 1260C989.267 1277.33 1025.63 1277.33 1062 1260C1098.37 1242.67 1134.73 1242.67 1171.1 1260C1207.47 1277.33 1243.83 1277.33 1280.2 1260C1316.57 1242.67 1352.93 1242.67 1389.3 1260C1425.67 1277.33 1462.03 1277.33 1498.4 1260C1534.77 1242.67 1571.13 1242.67 1607.5 1260C1643.87 1277.33 1680.23 1277.33 1716.6 1260C1752.97 1242.67 1789.33 1242.67 1825.7 1260C1862.07 1277.33 1898.43 1277.33 1934.8 1260C1971.17 1242.67 2007.53 1242.67 2043.9 1260C2080.27 1277.33 2116.63 1277.33 2153 1260"
        stroke="red" stroke-width="2" />
    <path
        d="M-29 1275C7.36666 1257.67 43.7333 1257.67 80.1 1275C116.467 1292.33 152.833 1292.33 189.2 1275C225.567 1257.67 261.933 1257.67 298.3 1275C334.667 1292.33 371.033 1292.33 407.4 1275C443.767 1257.67 480.133 1257.67 516.5 1275C552.867 1292.33 589.233 1292.33 625.6 1275C661.967 1257.67 698.333 1257.67 734.7 1275C771.067 1292.33 807.433 1292.33 843.8 1275C880.167 1257.67 916.533 1257.67 952.9 1275C989.267 1292.33 1025.63 1292.33 1062 1275C1098.37 1257.67 1134.73 1257.67 1171.1 1275C1207.47 1292.33 1243.83 1292.33 1280.2 1275C1316.57 1257.67 1352.93 1257.67 1389.3 1275C1425.67 1292.33 1462.03 1292.33 1498.4 1275C1534.77 1257.67 1571.13 1257.67 1607.5 1275C1643.87 1292.33 1680.23 1292.33 1716.6 1275C1752.97 1257.67 1789.33 1257.67 1825.7 1275C1862.07 1292.33 1898.43 1292.33 1934.8 1275C1971.17 1257.67 2007.53 1257.67 2043.9 1275C2080.27 1292.33 2116.63 1292.33 2153 1275"
        stroke="red" stroke-width="2" />
    <path
        d="M-29 1290C7.36666 1272.67 43.7333 1272.67 80.1 1290C116.467 1307.33 152.833 1307.33 189.2 1290C225.567 1272.67 261.933 1272.67 298.3 1290C334.667 1307.33 371.033 1307.33 407.4 1290C443.767 1272.67 480.133 1272.67 516.5 1290C552.867 1307.33 589.233 1307.33 625.6 1290C661.967 1272.67 698.333 1272.67 734.7 1290C771.067 1307.33 807.433 1307.33 843.8 1290C880.167 1272.67 916.533 1272.67 952.9 1290C989.267 1307.33 1025.63 1307.33 1062 1290C1098.37 1272.67 1134.73 1272.67 1171.1 1290C1207.47 1307.33 1243.83 1307.33 1280.2 1290C1316.57 1272.67 1352.93 1272.67 1389.3 1290C1425.67 1307.33 1462.03 1307.33 1498.4 1290C1534.77 1272.67 1571.13 1272.67 1607.5 1290C1643.87 1307.33 1680.23 1307.33 1716.6 1290C1752.97 1272.67 1789.33 1272.67 1825.7 1290C1862.07 1307.33 1898.43 1307.33 1934.8 1290C1971.17 1272.67 2007.53 1272.67 2043.9 1290C2080.27 1307.33 2116.63 1307.33 2153 1290"
        stroke="red" stroke-width="2" />
    <path
        d="M-29 1305C7.36666 1287.67 43.7333 1287.67 80.1 1305C116.467 1322.33 152.833 1322.33 189.2 1305C225.567 1287.67 261.933 1287.67 298.3 1305C334.667 1322.33 371.033 1322.33 407.4 1305C443.767 1287.67 480.133 1287.67 516.5 1305C552.867 1322.33 589.233 1322.33 625.6 1305C661.967 1287.67 698.333 1287.67 734.7 1305C771.067 1322.33 807.433 1322.33 843.8 1305C880.167 1287.67 916.533 1287.67 952.9 1305C989.267 1322.33 1025.63 1322.33 1062 1305C1098.37 1287.67 1134.73 1287.67 1171.1 1305C1207.47 1322.33 1243.83 1322.33 1280.2 1305C1316.57 1287.67 1352.93 1287.67 1389.3 1305C1425.67 1322.33 1462.03 1322.33 1498.4 1305C1534.77 1287.67 1571.13 1287.67 1607.5 1305C1643.87 1322.33 1680.23 1322.33 1716.6 1305C1752.97 1287.67 1789.33 1287.67 1825.7 1305C1862.07 1322.33 1898.43 1322.33 1934.8 1305C1971.17 1287.67 2007.53 1287.67 2043.9 1305C2080.27 1322.33 2116.63 1322.33 2153 1305"
        stroke="red" stroke-width="2" />
    <path
        d="M-29 1320C7.36666 1302.67 43.7333 1302.67 80.1 1320C116.467 1337.33 152.833 1337.33 189.2 1320C225.567 1302.67 261.933 1302.67 298.3 1320C334.667 1337.33 371.033 1337.33 407.4 1320C443.767 1302.67 480.133 1302.67 516.5 1320C552.867 1337.33 589.233 1337.33 625.6 1320C661.967 1302.67 698.333 1302.67 734.7 1320C771.067 1337.33 807.433 1337.33 843.8 1320C880.167 1302.67 916.533 1302.67 952.9 1320C989.267 1337.33 1025.63 1337.33 1062 1320C1098.37 1302.67 1134.73 1302.67 1171.1 1320C1207.47 1337.33 1243.83 1337.33 1280.2 1320C1316.57 1302.67 1352.93 1302.67 1389.3 1320C1425.67 1337.33 1462.03 1337.33 1498.4 1320C1534.77 1302.67 1571.13 1302.67 1607.5 1320C1643.87 1337.33 1680.23 1337.33 1716.6 1320C1752.97 1302.67 1789.33 1302.67 1825.7 1320C1862.07 1337.33 1898.43 1337.33 1934.8 1320C1971.17 1302.67 2007.53 1302.67 2043.9 1320C2080.27 1337.33 2116.63 1337.33 2153 1320"
        stroke="red" stroke-width="2" />
    <path
        d="M-29 675C7.36666 657.667 43.7333 657.667 80.1 675C116.467 692.333 152.833 692.333 189.2 675C225.567 657.667 261.933 657.667 298.3 675C334.667 692.333 371.033 692.333 407.4 675C443.767 657.667 480.133 657.667 516.5 675C552.867 692.333 589.233 692.333 625.6 675C661.967 657.667 698.333 657.667 734.7 675C771.067 692.333 807.433 692.333 843.8 675C880.167 657.667 916.533 657.667 952.9 675C989.267 692.333 1025.63 692.333 1062 675C1098.37 657.667 1134.73 657.667 1171.1 675C1207.47 692.333 1243.83 692.333 1280.2 675C1316.57 657.667 1352.93 657.667 1389.3 675C1425.67 692.333 1462.03 692.333 1498.4 675C1534.77 657.667 1571.13 657.667 1607.5 675C1643.87 692.333 1680.23 692.333 1716.6 675C1752.97 657.667 1789.33 657.667 1825.7 675C1862.07 692.333 1898.43 692.333 1934.8 675C1971.17 657.667 2007.53 657.667 2043.9 675C2080.27 692.333 2116.63 692.333 2153 675"
        stroke="red" stroke-width="2" />
    <path
        d="M-29 690C7.36666 672.667 43.7333 672.667 80.1 690C116.467 707.333 152.833 707.333 189.2 690C225.567 672.667 261.933 672.667 298.3 690C334.667 707.333 371.033 707.333 407.4 690C443.767 672.667 480.133 672.667 516.5 690C552.867 707.333 589.233 707.333 625.6 690C661.967 672.667 698.333 672.667 734.7 690C771.067 707.333 807.433 707.333 843.8 690C880.167 672.667 916.533 672.667 952.9 690C989.267 707.333 1025.63 707.333 1062 690C1098.37 672.667 1134.73 672.667 1171.1 690C1207.47 707.333 1243.83 707.333 1280.2 690C1316.57 672.667 1352.93 672.667 1389.3 690C1425.67 707.333 1462.03 707.333 1498.4 690C1534.77 672.667 1571.13 672.667 1607.5 690C1643.87 707.333 1680.23 707.333 1716.6 690C1752.97 672.667 1789.33 672.667 1825.7 690C1862.07 707.333 1898.43 707.333 1934.8 690C1971.17 672.667 2007.53 672.667 2043.9 690C2080.27 707.333 2116.63 707.333 2153 690"
        stroke="red" stroke-width="2" />
    <path
        d="M-29 705C7.36666 687.667 43.7333 687.667 80.1 705C116.467 722.333 152.833 722.333 189.2 705C225.567 687.667 261.933 687.667 298.3 705C334.667 722.333 371.033 722.333 407.4 705C443.767 687.667 480.133 687.667 516.5 705C552.867 722.333 589.233 722.333 625.6 705C661.967 687.667 698.333 687.667 734.7 705C771.067 722.333 807.433 722.333 843.8 705C880.167 687.667 916.533 687.667 952.9 705C989.267 722.333 1025.63 722.333 1062 705C1098.37 687.667 1134.73 687.667 1171.1 705C1207.47 722.333 1243.83 722.333 1280.2 705C1316.57 687.667 1352.93 687.667 1389.3 705C1425.67 722.333 1462.03 722.333 1498.4 705C1534.77 687.667 1571.13 687.667 1607.5 705C1643.87 722.333 1680.23 722.333 1716.6 705C1752.97 687.667 1789.33 687.667 1825.7 705C1862.07 722.333 1898.43 722.333 1934.8 705C1971.17 687.667 2007.53 687.667 2043.9 705C2080.27 722.333 2116.63 722.333 2153 705"
        stroke="red" stroke-width="2" />
    <path
        d="M-29 720C7.36666 702.667 43.7333 702.667 80.1 720C116.467 737.333 152.833 737.333 189.2 720C225.567 702.667 261.933 702.667 298.3 720C334.667 737.333 371.033 737.333 407.4 720C443.767 702.667 480.133 702.667 516.5 720C552.867 737.333 589.233 737.333 625.6 720C661.967 702.667 698.333 702.667 734.7 720C771.067 737.333 807.433 737.333 843.8 720C880.167 702.667 916.533 702.667 952.9 720C989.267 737.333 1025.63 737.333 1062 720C1098.37 702.667 1134.73 702.667 1171.1 720C1207.47 737.333 1243.83 737.333 1280.2 720C1316.57 702.667 1352.93 702.667 1389.3 720C1425.67 737.333 1462.03 737.333 1498.4 720C1534.77 702.667 1571.13 702.667 1607.5 720C1643.87 737.333 1680.23 737.333 1716.6 720C1752.97 702.667 1789.33 702.667 1825.7 720C1862.07 737.333 1898.43 737.333 1934.8 720C1971.17 702.667 2007.53 702.667 2043.9 720C2080.27 737.333 2116.63 737.333 2153 720"
        stroke="red" stroke-width="2" />
    <path
        d="M-29 735C7.36666 717.667 43.7333 717.667 80.1 735C116.467 752.333 152.833 752.333 189.2 735C225.567 717.667 261.933 717.667 298.3 735C334.667 752.333 371.033 752.333 407.4 735C443.767 717.667 480.133 717.667 516.5 735C552.867 752.333 589.233 752.333 625.6 735C661.967 717.667 698.333 717.667 734.7 735C771.067 752.333 807.433 752.333 843.8 735C880.167 717.667 916.533 717.667 952.9 735C989.267 752.333 1025.63 752.333 1062 735C1098.37 717.667 1134.73 717.667 1171.1 735C1207.47 752.333 1243.83 752.333 1280.2 735C1316.57 717.667 1352.93 717.667 1389.3 735C1425.67 752.333 1462.03 752.333 1498.4 735C1534.77 717.667 1571.13 717.667 1607.5 735C1643.87 752.333 1680.23 752.333 1716.6 735C1752.97 717.667 1789.33 717.667 1825.7 735C1862.07 752.333 1898.43 752.333 1934.8 735C1971.17 717.667 2007.53 717.667 2043.9 735C2080.27 752.333 2116.63 752.333 2153 735"
        stroke="red" stroke-width="2" />
    <path
        d="M-29 750C7.36666 732.667 43.7333 732.667 80.1 750C116.467 767.333 152.833 767.333 189.2 750C225.567 732.667 261.933 732.667 298.3 750C334.667 767.333 371.033 767.333 407.4 750C443.767 732.667 480.133 732.667 516.5 750C552.867 767.333 589.233 767.333 625.6 750C661.967 732.667 698.333 732.667 734.7 750C771.067 767.333 807.433 767.333 843.8 750C880.167 732.667 916.533 732.667 952.9 750C989.267 767.333 1025.63 767.333 1062 750C1098.37 732.667 1134.73 732.667 1171.1 750C1207.47 767.333 1243.83 767.333 1280.2 750C1316.57 732.667 1352.93 732.667 1389.3 750C1425.67 767.333 1462.03 767.333 1498.4 750C1534.77 732.667 1571.13 732.667 1607.5 750C1643.87 767.333 1680.23 767.333 1716.6 750C1752.97 732.667 1789.33 732.667 1825.7 750C1862.07 767.333 1898.43 767.333 1934.8 750C1971.17 732.667 2007.53 732.667 2043.9 750C2080.27 767.333 2116.63 767.333 2153 750"
        stroke="red" stroke-width="2" />
    <path
        d="M-29 765C7.36666 747.667 43.7333 747.667 80.1 765C116.467 782.333 152.833 782.333 189.2 765C225.567 747.667 261.933 747.667 298.3 765C334.667 782.333 371.033 782.333 407.4 765C443.767 747.667 480.133 747.667 516.5 765C552.867 782.333 589.233 782.333 625.6 765C661.967 747.667 698.333 747.667 734.7 765C771.067 782.333 807.433 782.333 843.8 765C880.167 747.667 916.533 747.667 952.9 765C989.267 782.333 1025.63 782.333 1062 765C1098.37 747.667 1134.73 747.667 1171.1 765C1207.47 782.333 1243.83 782.333 1280.2 765C1316.57 747.667 1352.93 747.667 1389.3 765C1425.67 782.333 1462.03 782.333 1498.4 765C1534.77 747.667 1571.13 747.667 1607.5 765C1643.87 782.333 1680.23 782.333 1716.6 765C1752.97 747.667 1789.33 747.667 1825.7 765C1862.07 782.333 1898.43 782.333 1934.8 765C1971.17 747.667 2007.53 747.667 2043.9 765C2080.27 782.333 2116.63 782.333 2153 765"
        stroke="red" stroke-width="2" />
    <path
        d="M-29 780C7.36666 762.667 43.7333 762.667 80.1 780C116.467 797.333 152.833 797.333 189.2 780C225.567 762.667 261.933 762.667 298.3 780C334.667 797.333 371.033 797.333 407.4 780C443.767 762.667 480.133 762.667 516.5 780C552.867 797.333 589.233 797.333 625.6 780C661.967 762.667 698.333 762.667 734.7 780C771.067 797.333 807.433 797.333 843.8 780C880.167 762.667 916.533 762.667 952.9 780C989.267 797.333 1025.63 797.333 1062 780C1098.37 762.667 1134.73 762.667 1171.1 780C1207.47 797.333 1243.83 797.333 1280.2 780C1316.57 762.667 1352.93 762.667 1389.3 780C1425.67 797.333 1462.03 797.333 1498.4 780C1534.77 762.667 1571.13 762.667 1607.5 780C1643.87 797.333 1680.23 797.333 1716.6 780C1752.97 762.667 1789.33 762.667 1825.7 780C1862.07 797.333 1898.43 797.333 1934.8 780C1971.17 762.667 2007.53 762.667 2043.9 780C2080.27 797.333 2116.63 797.333 2153 780"
        stroke="red" stroke-width="2" />
    <path
        d="M-29 795C7.36666 777.667 43.7333 777.667 80.1 795C116.467 812.333 152.833 812.333 189.2 795C225.567 777.667 261.933 777.667 298.3 795C334.667 812.333 371.033 812.333 407.4 795C443.767 777.667 480.133 777.667 516.5 795C552.867 812.333 589.233 812.333 625.6 795C661.967 777.667 698.333 777.667 734.7 795C771.067 812.333 807.433 812.333 843.8 795C880.167 777.667 916.533 777.667 952.9 795C989.267 812.333 1025.63 812.333 1062 795C1098.37 777.667 1134.73 777.667 1171.1 795C1207.47 812.333 1243.83 812.333 1280.2 795C1316.57 777.667 1352.93 777.667 1389.3 795C1425.67 812.333 1462.03 812.333 1498.4 795C1534.77 777.667 1571.13 777.667 1607.5 795C1643.87 812.333 1680.23 812.333 1716.6 795C1752.97 777.667 1789.33 777.667 1825.7 795C1862.07 812.333 1898.43 812.333 1934.8 795C1971.17 777.667 2007.53 777.667 2043.9 795C2080.27 812.333 2116.63 812.333 2153 795"
        stroke="red" stroke-width="2" />
    <path
        d="M-29 810C7.36666 792.667 43.7333 792.667 80.1 810C116.467 827.333 152.833 827.333 189.2 810C225.567 792.667 261.933 792.667 298.3 810C334.667 827.333 371.033 827.333 407.4 810C443.767 792.667 480.133 792.667 516.5 810C552.867 827.333 589.233 827.333 625.6 810C661.967 792.667 698.333 792.667 734.7 810C771.067 827.333 807.433 827.333 843.8 810C880.167 792.667 916.533 792.667 952.9 810C989.267 827.333 1025.63 827.333 1062 810C1098.37 792.667 1134.73 792.667 1171.1 810C1207.47 827.333 1243.83 827.333 1280.2 810C1316.57 792.667 1352.93 792.667 1389.3 810C1425.67 827.333 1462.03 827.333 1498.4 810C1534.77 792.667 1571.13 792.667 1607.5 810C1643.87 827.333 1680.23 827.333 1716.6 810C1752.97 792.667 1789.33 792.667 1825.7 810C1862.07 827.333 1898.43 827.333 1934.8 810C1971.17 792.667 2007.53 792.667 2043.9 810C2080.27 827.333 2116.63 827.333 2153 810"
        stroke="red" stroke-width="2" />
    <path
        d="M-29 825C7.36666 807.667 43.7333 807.667 80.1 825C116.467 842.333 152.833 842.333 189.2 825C225.567 807.667 261.933 807.667 298.3 825C334.667 842.333 371.033 842.333 407.4 825C443.767 807.667 480.133 807.667 516.5 825C552.867 842.333 589.233 842.333 625.6 825C661.967 807.667 698.333 807.667 734.7 825C771.067 842.333 807.433 842.333 843.8 825C880.167 807.667 916.533 807.667 952.9 825C989.267 842.333 1025.63 842.333 1062 825C1098.37 807.667 1134.73 807.667 1171.1 825C1207.47 842.333 1243.83 842.333 1280.2 825C1316.57 807.667 1352.93 807.667 1389.3 825C1425.67 842.333 1462.03 842.333 1498.4 825C1534.77 807.667 1571.13 807.667 1607.5 825C1643.87 842.333 1680.23 842.333 1716.6 825C1752.97 807.667 1789.33 807.667 1825.7 825C1862.07 842.333 1898.43 842.333 1934.8 825C1971.17 807.667 2007.53 807.667 2043.9 825C2080.27 842.333 2116.63 842.333 2153 825"
        stroke="red" stroke-width="2" />
    <path
        d="M-29 840C7.36666 822.667 43.7333 822.667 80.1 840C116.467 857.333 152.833 857.333 189.2 840C225.567 822.667 261.933 822.667 298.3 840C334.667 857.333 371.033 857.333 407.4 840C443.767 822.667 480.133 822.667 516.5 840C552.867 857.333 589.233 857.333 625.6 840C661.967 822.667 698.333 822.667 734.7 840C771.067 857.333 807.433 857.333 843.8 840C880.167 822.667 916.533 822.667 952.9 840C989.267 857.333 1025.63 857.333 1062 840C1098.37 822.667 1134.73 822.667 1171.1 840C1207.47 857.333 1243.83 857.333 1280.2 840C1316.57 822.667 1352.93 822.667 1389.3 840C1425.67 857.333 1462.03 857.333 1498.4 840C1534.77 822.667 1571.13 822.667 1607.5 840C1643.87 857.333 1680.23 857.333 1716.6 840C1752.97 822.667 1789.33 822.667 1825.7 840C1862.07 857.333 1898.43 857.333 1934.8 840C1971.17 822.667 2007.53 822.667 2043.9 840C2080.27 857.333 2116.63 857.333 2153 840"
        stroke="red" stroke-width="2" />
    <path
        d="M-29 855C7.36666 837.667 43.7333 837.667 80.1 855C116.467 872.333 152.833 872.333 189.2 855C225.567 837.667 261.933 837.667 298.3 855C334.667 872.333 371.033 872.333 407.4 855C443.767 837.667 480.133 837.667 516.5 855C552.867 872.333 589.233 872.333 625.6 855C661.967 837.667 698.333 837.667 734.7 855C771.067 872.333 807.433 872.333 843.8 855C880.167 837.667 916.533 837.667 952.9 855C989.267 872.333 1025.63 872.333 1062 855C1098.37 837.667 1134.73 837.667 1171.1 855C1207.47 872.333 1243.83 872.333 1280.2 855C1316.57 837.667 1352.93 837.667 1389.3 855C1425.67 872.333 1462.03 872.333 1498.4 855C1534.77 837.667 1571.13 837.667 1607.5 855C1643.87 872.333 1680.23 872.333 1716.6 855C1752.97 837.667 1789.33 837.667 1825.7 855C1862.07 872.333 1898.43 872.333 1934.8 855C1971.17 837.667 2007.53 837.667 2043.9 855C2080.27 872.333 2116.63 872.333 2153 855"
        stroke="red" stroke-width="2" />
    <path
        d="M-29 870C7.36666 852.667 43.7333 852.667 80.1 870C116.467 887.333 152.833 887.333 189.2 870C225.567 852.667 261.933 852.667 298.3 870C334.667 887.333 371.033 887.333 407.4 870C443.767 852.667 480.133 852.667 516.5 870C552.867 887.333 589.233 887.333 625.6 870C661.967 852.667 698.333 852.667 734.7 870C771.067 887.333 807.433 887.333 843.8 870C880.167 852.667 916.533 852.667 952.9 870C989.267 887.333 1025.63 887.333 1062 870C1098.37 852.667 1134.73 852.667 1171.1 870C1207.47 887.333 1243.83 887.333 1280.2 870C1316.57 852.667 1352.93 852.667 1389.3 870C1425.67 887.333 1462.03 887.333 1498.4 870C1534.77 852.667 1571.13 852.667 1607.5 870C1643.87 887.333 1680.23 887.333 1716.6 870C1752.97 852.667 1789.33 852.667 1825.7 870C1862.07 887.333 1898.43 887.333 1934.8 870C1971.17 852.667 2007.53 852.667 2043.9 870C2080.27 887.333 2116.63 887.333 2153 870"
        stroke="red" stroke-width="2" />
    <path
        d="M-29 885C7.36666 867.667 43.7333 867.667 80.1 885C116.467 902.333 152.833 902.333 189.2 885C225.567 867.667 261.933 867.667 298.3 885C334.667 902.333 371.033 902.333 407.4 885C443.767 867.667 480.133 867.667 516.5 885C552.867 902.333 589.233 902.333 625.6 885C661.967 867.667 698.333 867.667 734.7 885C771.067 902.333 807.433 902.333 843.8 885C880.167 867.667 916.533 867.667 952.9 885C989.267 902.333 1025.63 902.333 1062 885C1098.37 867.667 1134.73 867.667 1171.1 885C1207.47 902.333 1243.83 902.333 1280.2 885C1316.57 867.667 1352.93 867.667 1389.3 885C1425.67 902.333 1462.03 902.333 1498.4 885C1534.77 867.667 1571.13 867.667 1607.5 885C1643.87 902.333 1680.23 902.333 1716.6 885C1752.97 867.667 1789.33 867.667 1825.7 885C1862.07 902.333 1898.43 902.333 1934.8 885C1971.17 867.667 2007.53 867.667 2043.9 885C2080.27 902.333 2116.63 902.333 2153 885"
        stroke="red" stroke-width="2" />
    <path
        d="M-29 900C7.36666 882.667 43.7333 882.667 80.1 900C116.467 917.333 152.833 917.333 189.2 900C225.567 882.667 261.933 882.667 298.3 900C334.667 917.333 371.033 917.333 407.4 900C443.767 882.667 480.133 882.667 516.5 900C552.867 917.333 589.233 917.333 625.6 900C661.967 882.667 698.333 882.667 734.7 900C771.067 917.333 807.433 917.333 843.8 900C880.167 882.667 916.533 882.667 952.9 900C989.267 917.333 1025.63 917.333 1062 900C1098.37 882.667 1134.73 882.667 1171.1 900C1207.47 917.333 1243.83 917.333 1280.2 900C1316.57 882.667 1352.93 882.667 1389.3 900C1425.67 917.333 1462.03 917.333 1498.4 900C1534.77 882.667 1571.13 882.667 1607.5 900C1643.87 917.333 1680.23 917.333 1716.6 900C1752.97 882.667 1789.33 882.667 1825.7 900C1862.07 917.333 1898.43 917.333 1934.8 900C1971.17 882.667 2007.53 882.667 2043.9 900C2080.27 917.333 2116.63 917.333 2153 900"
        stroke="red" stroke-width="2" />
    <path
        d="M-29 915C7.36666 897.667 43.7333 897.667 80.1 915C116.467 932.333 152.833 932.333 189.2 915C225.567 897.667 261.933 897.667 298.3 915C334.667 932.333 371.033 932.333 407.4 915C443.767 897.667 480.133 897.667 516.5 915C552.867 932.333 589.233 932.333 625.6 915C661.967 897.667 698.333 897.667 734.7 915C771.067 932.333 807.433 932.333 843.8 915C880.167 897.667 916.533 897.667 952.9 915C989.267 932.333 1025.63 932.333 1062 915C1098.37 897.667 1134.73 897.667 1171.1 915C1207.47 932.333 1243.83 932.333 1280.2 915C1316.57 897.667 1352.93 897.667 1389.3 915C1425.67 932.333 1462.03 932.333 1498.4 915C1534.77 897.667 1571.13 897.667 1607.5 915C1643.87 932.333 1680.23 932.333 1716.6 915C1752.97 897.667 1789.33 897.667 1825.7 915C1862.07 932.333 1898.43 932.333 1934.8 915C1971.17 897.667 2007.53 897.667 2043.9 915C2080.27 932.333 2116.63 932.333 2153 915"
        stroke="red" stroke-width="2" />
    <path
        d="M-29 930C7.36666 912.667 43.7333 912.667 80.1 930C116.467 947.333 152.833 947.333 189.2 930C225.567 912.667 261.933 912.667 298.3 930C334.667 947.333 371.033 947.333 407.4 930C443.767 912.667 480.133 912.667 516.5 930C552.867 947.333 589.233 947.333 625.6 930C661.967 912.667 698.333 912.667 734.7 930C771.067 947.333 807.433 947.333 843.8 930C880.167 912.667 916.533 912.667 952.9 930C989.267 947.333 1025.63 947.333 1062 930C1098.37 912.667 1134.73 912.667 1171.1 930C1207.47 947.333 1243.83 947.333 1280.2 930C1316.57 912.667 1352.93 912.667 1389.3 930C1425.67 947.333 1462.03 947.333 1498.4 930C1534.77 912.667 1571.13 912.667 1607.5 930C1643.87 947.333 1680.23 947.333 1716.6 930C1752.97 912.667 1789.33 912.667 1825.7 930C1862.07 947.333 1898.43 947.333 1934.8 930C1971.17 912.667 2007.53 912.667 2043.9 930C2080.27 947.333 2116.63 947.333 2153 930"
        stroke="red" stroke-width="2" />
    <path
        d="M-29 945C7.36666 927.667 43.7333 927.667 80.1 945C116.467 962.333 152.833 962.333 189.2 945C225.567 927.667 261.933 927.667 298.3 945C334.667 962.333 371.033 962.333 407.4 945C443.767 927.667 480.133 927.667 516.5 945C552.867 962.333 589.233 962.333 625.6 945C661.967 927.667 698.333 927.667 734.7 945C771.067 962.333 807.433 962.333 843.8 945C880.167 927.667 916.533 927.667 952.9 945C989.267 962.333 1025.63 962.333 1062 945C1098.37 927.667 1134.73 927.667 1171.1 945C1207.47 962.333 1243.83 962.333 1280.2 945C1316.57 927.667 1352.93 927.667 1389.3 945C1425.67 962.333 1462.03 962.333 1498.4 945C1534.77 927.667 1571.13 927.667 1607.5 945C1643.87 962.333 1680.23 962.333 1716.6 945C1752.97 927.667 1789.33 927.667 1825.7 945C1862.07 962.333 1898.43 962.333 1934.8 945C1971.17 927.667 2007.53 927.667 2043.9 945C2080.27 962.333 2116.63 962.333 2153 945"
        stroke="red" stroke-width="2" />
    <path
        d="M-29 960C7.36666 942.667 43.7333 942.667 80.1 960C116.467 977.333 152.833 977.333 189.2 960C225.567 942.667 261.933 942.667 298.3 960C334.667 977.333 371.033 977.333 407.4 960C443.767 942.667 480.133 942.667 516.5 960C552.867 977.333 589.233 977.333 625.6 960C661.967 942.667 698.333 942.667 734.7 960C771.067 977.333 807.433 977.333 843.8 960C880.167 942.667 916.533 942.667 952.9 960C989.267 977.333 1025.63 977.333 1062 960C1098.37 942.667 1134.73 942.667 1171.1 960C1207.47 977.333 1243.83 977.333 1280.2 960C1316.57 942.667 1352.93 942.667 1389.3 960C1425.67 977.333 1462.03 977.333 1498.4 960C1534.77 942.667 1571.13 942.667 1607.5 960C1643.87 977.333 1680.23 977.333 1716.6 960C1752.97 942.667 1789.33 942.667 1825.7 960C1862.07 977.333 1898.43 977.333 1934.8 960C1971.17 942.667 2007.53 942.667 2043.9 960C2080.27 977.333 2116.63 977.333 2153 960"
        stroke="red" stroke-width="2" />
    <path
        d="M-29 975C7.36666 957.667 43.7333 957.667 80.1 975C116.467 992.333 152.833 992.333 189.2 975C225.567 957.667 261.933 957.667 298.3 975C334.667 992.333 371.033 992.333 407.4 975C443.767 957.667 480.133 957.667 516.5 975C552.867 992.333 589.233 992.333 625.6 975C661.967 957.667 698.333 957.667 734.7 975C771.067 992.333 807.433 992.333 843.8 975C880.167 957.667 916.533 957.667 952.9 975C989.267 992.333 1025.63 992.333 1062 975C1098.37 957.667 1134.73 957.667 1171.1 975C1207.47 992.333 1243.83 992.333 1280.2 975C1316.57 957.667 1352.93 957.667 1389.3 975C1425.67 992.333 1462.03 992.333 1498.4 975C1534.77 957.667 1571.13 957.667 1607.5 975C1643.87 992.333 1680.23 992.333 1716.6 975C1752.97 957.667 1789.33 957.667 1825.7 975C1862.07 992.333 1898.43 992.333 1934.8 975C1971.17 957.667 2007.53 957.667 2043.9 975C2080.27 992.333 2116.63 992.333 2153 975"
        stroke="red" stroke-width="2" />
    <path
        d="M-29 990C7.36666 972.667 43.7333 972.667 80.1 990C116.467 1007.33 152.833 1007.33 189.2 990C225.567 972.667 261.933 972.667 298.3 990C334.667 1007.33 371.033 1007.33 407.4 990C443.767 972.667 480.133 972.667 516.5 990C552.867 1007.33 589.233 1007.33 625.6 990C661.967 972.667 698.333 972.667 734.7 990C771.067 1007.33 807.433 1007.33 843.8 990C880.167 972.667 916.533 972.667 952.9 990C989.267 1007.33 1025.63 1007.33 1062 990C1098.37 972.667 1134.73 972.667 1171.1 990C1207.47 1007.33 1243.83 1007.33 1280.2 990C1316.57 972.667 1352.93 972.667 1389.3 990C1425.67 1007.33 1462.03 1007.33 1498.4 990C1534.77 972.667 1571.13 972.667 1607.5 990C1643.87 1007.33 1680.23 1007.33 1716.6 990C1752.97 972.667 1789.33 972.667 1825.7 990C1862.07 1007.33 1898.43 1007.33 1934.8 990C1971.17 972.667 2007.53 972.667 2043.9 990C2080.27 1007.33 2116.63 1007.33 2153 990"
        stroke="red" stroke-width="2" />
    <path
        d="M-29 14C7.36666 -3.33333 43.7333 -3.33333 80.1 14C116.467 31.3333 152.833 31.3333 189.2 14C225.567 -3.33333 261.933 -3.33333 298.3 14C334.667 31.3333 371.033 31.3333 407.4 14C443.767 -3.33333 480.133 -3.33333 516.5 14C552.867 31.3333 589.233 31.3333 625.6 14C661.967 -3.33333 698.333 -3.33333 734.7 14C771.067 31.3333 807.433 31.3333 843.8 14C880.167 -3.33333 916.533 -3.33333 952.9 14C989.267 31.3333 1025.63 31.3333 1062 14C1098.37 -3.33333 1134.73 -3.33333 1171.1 14C1207.47 31.3333 1243.83 31.3333 1280.2 14C1316.57 -3.33333 1352.93 -3.33333 1389.3 14C1425.67 31.3333 1462.03 31.3333 1498.4 14C1534.77 -3.33333 1571.13 -3.33333 1607.5 14C1643.87 31.3333 1680.23 31.3333 1716.6 14C1752.97 -3.33333 1789.33 -3.33333 1825.7 14C1862.07 31.3333 1898.43 31.3333 1934.8 14C1971.17 -3.33333 2007.53 -3.33333 2043.9 14C2080.27 31.3333 2116.63 31.3333 2153 14"
        stroke="red" stroke-width="2" />
    <path
        d="M-29 29C7.36666 11.6667 43.7333 11.6667 80.1 29C116.467 46.3333 152.833 46.3333 189.2 29C225.567 11.6667 261.933 11.6667 298.3 29C334.667 46.3333 371.033 46.3333 407.4 29C443.767 11.6667 480.133 11.6667 516.5 29C552.867 46.3333 589.233 46.3333 625.6 29C661.967 11.6667 698.333 11.6667 734.7 29C771.067 46.3333 807.433 46.3333 843.8 29C880.167 11.6667 916.533 11.6667 952.9 29C989.267 46.3333 1025.63 46.3333 1062 29C1098.37 11.6667 1134.73 11.6667 1171.1 29C1207.47 46.3333 1243.83 46.3333 1280.2 29C1316.57 11.6667 1352.93 11.6667 1389.3 29C1425.67 46.3333 1462.03 46.3333 1498.4 29C1534.77 11.6667 1571.13 11.6667 1607.5 29C1643.87 46.3333 1680.23 46.3333 1716.6 29C1752.97 11.6667 1789.33 11.6667 1825.7 29C1862.07 46.3333 1898.43 46.3333 1934.8 29C1971.17 11.6667 2007.53 11.6667 2043.9 29C2080.27 46.3333 2116.63 46.3333 2153 29"
        stroke="red" stroke-width="2" />
    <path
        d="M-29 44C7.36666 26.6667 43.7333 26.6667 80.1 44C116.467 61.3333 152.833 61.3333 189.2 44C225.567 26.6667 261.933 26.6667 298.3 44C334.667 61.3333 371.033 61.3333 407.4 44C443.767 26.6667 480.133 26.6667 516.5 44C552.867 61.3333 589.233 61.3333 625.6 44C661.967 26.6667 698.333 26.6667 734.7 44C771.067 61.3333 807.433 61.3333 843.8 44C880.167 26.6667 916.533 26.6667 952.9 44C989.267 61.3333 1025.63 61.3333 1062 44C1098.37 26.6667 1134.73 26.6667 1171.1 44C1207.47 61.3333 1243.83 61.3333 1280.2 44C1316.57 26.6667 1352.93 26.6667 1389.3 44C1425.67 61.3333 1462.03 61.3333 1498.4 44C1534.77 26.6667 1571.13 26.6667 1607.5 44C1643.87 61.3333 1680.23 61.3333 1716.6 44C1752.97 26.6667 1789.33 26.6667 1825.7 44C1862.07 61.3333 1898.43 61.3333 1934.8 44C1971.17 26.6667 2007.53 26.6667 2043.9 44C2080.27 61.3333 2116.63 61.3333 2153 44"
        stroke="red" stroke-width="2" />
    <path
        d="M-29 59C7.36666 41.6667 43.7333 41.6667 80.1 59C116.467 76.3333 152.833 76.3333 189.2 59C225.567 41.6667 261.933 41.6667 298.3 59C334.667 76.3333 371.033 76.3333 407.4 59C443.767 41.6667 480.133 41.6667 516.5 59C552.867 76.3333 589.233 76.3333 625.6 59C661.967 41.6667 698.333 41.6667 734.7 59C771.067 76.3333 807.433 76.3333 843.8 59C880.167 41.6667 916.533 41.6667 952.9 59C989.267 76.3333 1025.63 76.3333 1062 59C1098.37 41.6667 1134.73 41.6667 1171.1 59C1207.47 76.3333 1243.83 76.3333 1280.2 59C1316.57 41.6667 1352.93 41.6667 1389.3 59C1425.67 76.3333 1462.03 76.3333 1498.4 59C1534.77 41.6667 1571.13 41.6667 1607.5 59C1643.87 76.3333 1680.23 76.3333 1716.6 59C1752.97 41.6667 1789.33 41.6667 1825.7 59C1862.07 76.3333 1898.43 76.3333 1934.8 59C1971.17 41.6667 2007.53 41.6667 2043.9 59C2080.27 76.3333 2116.63 76.3333 2153 59"
        stroke="red" stroke-width="2" />
    <path
        d="M-29 74C7.36666 56.6667 43.7333 56.6667 80.1 74C116.467 91.3333 152.833 91.3333 189.2 74C225.567 56.6667 261.933 56.6667 298.3 74C334.667 91.3333 371.033 91.3333 407.4 74C443.767 56.6667 480.133 56.6667 516.5 74C552.867 91.3333 589.233 91.3333 625.6 74C661.967 56.6667 698.333 56.6667 734.7 74C771.067 91.3333 807.433 91.3333 843.8 74C880.167 56.6667 916.533 56.6667 952.9 74C989.267 91.3333 1025.63 91.3333 1062 74C1098.37 56.6667 1134.73 56.6667 1171.1 74C1207.47 91.3333 1243.83 91.3333 1280.2 74C1316.57 56.6667 1352.93 56.6667 1389.3 74C1425.67 91.3333 1462.03 91.3333 1498.4 74C1534.77 56.6667 1571.13 56.6667 1607.5 74C1643.87 91.3333 1680.23 91.3333 1716.6 74C1752.97 56.6667 1789.33 56.6667 1825.7 74C1862.07 91.3333 1898.43 91.3333 1934.8 74C1971.17 56.6667 2007.53 56.6667 2043.9 74C2080.27 91.3333 2116.63 91.3333 2153 74"
        stroke="red" stroke-width="2" />
    <path
        d="M-29 89C7.36666 71.6667 43.7333 71.6667 80.1 89C116.467 106.333 152.833 106.333 189.2 89C225.567 71.6667 261.933 71.6667 298.3 89C334.667 106.333 371.033 106.333 407.4 89C443.767 71.6667 480.133 71.6667 516.5 89C552.867 106.333 589.233 106.333 625.6 89C661.967 71.6667 698.333 71.6667 734.7 89C771.067 106.333 807.433 106.333 843.8 89C880.167 71.6667 916.533 71.6667 952.9 89C989.267 106.333 1025.63 106.333 1062 89C1098.37 71.6667 1134.73 71.6667 1171.1 89C1207.47 106.333 1243.83 106.333 1280.2 89C1316.57 71.6667 1352.93 71.6667 1389.3 89C1425.67 106.333 1462.03 106.333 1498.4 89C1534.77 71.6667 1571.13 71.6667 1607.5 89C1643.87 106.333 1680.23 106.333 1716.6 89C1752.97 71.6667 1789.33 71.6667 1825.7 89C1862.07 106.333 1898.43 106.333 1934.8 89C1971.17 71.6667 2007.53 71.6667 2043.9 89C2080.27 106.333 2116.63 106.333 2153 89"
        stroke="red" stroke-width="2" />
    <path
        d="M-29 104C7.36666 86.6667 43.7333 86.6667 80.1 104C116.467 121.333 152.833 121.333 189.2 104C225.567 86.6667 261.933 86.6667 298.3 104C334.667 121.333 371.033 121.333 407.4 104C443.767 86.6667 480.133 86.6667 516.5 104C552.867 121.333 589.233 121.333 625.6 104C661.967 86.6667 698.333 86.6667 734.7 104C771.067 121.333 807.433 121.333 843.8 104C880.167 86.6667 916.533 86.6667 952.9 104C989.267 121.333 1025.63 121.333 1062 104C1098.37 86.6667 1134.73 86.6667 1171.1 104C1207.47 121.333 1243.83 121.333 1280.2 104C1316.57 86.6667 1352.93 86.6667 1389.3 104C1425.67 121.333 1462.03 121.333 1498.4 104C1534.77 86.6667 1571.13 86.6667 1607.5 104C1643.87 121.333 1680.23 121.333 1716.6 104C1752.97 86.6667 1789.33 86.6667 1825.7 104C1862.07 121.333 1898.43 121.333 1934.8 104C1971.17 86.6667 2007.53 86.6667 2043.9 104C2080.27 121.333 2116.63 121.333 2153 104"
        stroke="red" stroke-width="2" />
    <path
        d="M-29 119C7.36666 101.667 43.7333 101.667 80.1 119C116.467 136.333 152.833 136.333 189.2 119C225.567 101.667 261.933 101.667 298.3 119C334.667 136.333 371.033 136.333 407.4 119C443.767 101.667 480.133 101.667 516.5 119C552.867 136.333 589.233 136.333 625.6 119C661.967 101.667 698.333 101.667 734.7 119C771.067 136.333 807.433 136.333 843.8 119C880.167 101.667 916.533 101.667 952.9 119C989.267 136.333 1025.63 136.333 1062 119C1098.37 101.667 1134.73 101.667 1171.1 119C1207.47 136.333 1243.83 136.333 1280.2 119C1316.57 101.667 1352.93 101.667 1389.3 119C1425.67 136.333 1462.03 136.333 1498.4 119C1534.77 101.667 1571.13 101.667 1607.5 119C1643.87 136.333 1680.23 136.333 1716.6 119C1752.97 101.667 1789.33 101.667 1825.7 119C1862.07 136.333 1898.43 136.333 1934.8 119C1971.17 101.667 2007.53 101.667 2043.9 119C2080.27 136.333 2116.63 136.333 2153 119"
        stroke="red" stroke-width="2" />
    <path
        d="M-29 134C7.36666 116.667 43.7333 116.667 80.1 134C116.467 151.333 152.833 151.333 189.2 134C225.567 116.667 261.933 116.667 298.3 134C334.667 151.333 371.033 151.333 407.4 134C443.767 116.667 480.133 116.667 516.5 134C552.867 151.333 589.233 151.333 625.6 134C661.967 116.667 698.333 116.667 734.7 134C771.067 151.333 807.433 151.333 843.8 134C880.167 116.667 916.533 116.667 952.9 134C989.267 151.333 1025.63 151.333 1062 134C1098.37 116.667 1134.73 116.667 1171.1 134C1207.47 151.333 1243.83 151.333 1280.2 134C1316.57 116.667 1352.93 116.667 1389.3 134C1425.67 151.333 1462.03 151.333 1498.4 134C1534.77 116.667 1571.13 116.667 1607.5 134C1643.87 151.333 1680.23 151.333 1716.6 134C1752.97 116.667 1789.33 116.667 1825.7 134C1862.07 151.333 1898.43 151.333 1934.8 134C1971.17 116.667 2007.53 116.667 2043.9 134C2080.27 151.333 2116.63 151.333 2153 134"
        stroke="red" stroke-width="2" />
    <path
        d="M-29 149C7.36666 131.667 43.7333 131.667 80.1 149C116.467 166.333 152.833 166.333 189.2 149C225.567 131.667 261.933 131.667 298.3 149C334.667 166.333 371.033 166.333 407.4 149C443.767 131.667 480.133 131.667 516.5 149C552.867 166.333 589.233 166.333 625.6 149C661.967 131.667 698.333 131.667 734.7 149C771.067 166.333 807.433 166.333 843.8 149C880.167 131.667 916.533 131.667 952.9 149C989.267 166.333 1025.63 166.333 1062 149C1098.37 131.667 1134.73 131.667 1171.1 149C1207.47 166.333 1243.83 166.333 1280.2 149C1316.57 131.667 1352.93 131.667 1389.3 149C1425.67 166.333 1462.03 166.333 1498.4 149C1534.77 131.667 1571.13 131.667 1607.5 149C1643.87 166.333 1680.23 166.333 1716.6 149C1752.97 131.667 1789.33 131.667 1825.7 149C1862.07 166.333 1898.43 166.333 1934.8 149C1971.17 131.667 2007.53 131.667 2043.9 149C2080.27 166.333 2116.63 166.333 2153 149"
        stroke="red" stroke-width="2" />
    <path
        d="M-29 164C7.36666 146.667 43.7333 146.667 80.1 164C116.467 181.333 152.833 181.333 189.2 164C225.567 146.667 261.933 146.667 298.3 164C334.667 181.333 371.033 181.333 407.4 164C443.767 146.667 480.133 146.667 516.5 164C552.867 181.333 589.233 181.333 625.6 164C661.967 146.667 698.333 146.667 734.7 164C771.067 181.333 807.433 181.333 843.8 164C880.167 146.667 916.533 146.667 952.9 164C989.267 181.333 1025.63 181.333 1062 164C1098.37 146.667 1134.73 146.667 1171.1 164C1207.47 181.333 1243.83 181.333 1280.2 164C1316.57 146.667 1352.93 146.667 1389.3 164C1425.67 181.333 1462.03 181.333 1498.4 164C1534.77 146.667 1571.13 146.667 1607.5 164C1643.87 181.333 1680.23 181.333 1716.6 164C1752.97 146.667 1789.33 146.667 1825.7 164C1862.07 181.333 1898.43 181.333 1934.8 164C1971.17 146.667 2007.53 146.667 2043.9 164C2080.27 181.333 2116.63 181.333 2153 164"
        stroke="red" stroke-width="2" />
    <path
        d="M-29 179C7.36666 161.667 43.7333 161.667 80.1 179C116.467 196.333 152.833 196.333 189.2 179C225.567 161.667 261.933 161.667 298.3 179C334.667 196.333 371.033 196.333 407.4 179C443.767 161.667 480.133 161.667 516.5 179C552.867 196.333 589.233 196.333 625.6 179C661.967 161.667 698.333 161.667 734.7 179C771.067 196.333 807.433 196.333 843.8 179C880.167 161.667 916.533 161.667 952.9 179C989.267 196.333 1025.63 196.333 1062 179C1098.37 161.667 1134.73 161.667 1171.1 179C1207.47 196.333 1243.83 196.333 1280.2 179C1316.57 161.667 1352.93 161.667 1389.3 179C1425.67 196.333 1462.03 196.333 1498.4 179C1534.77 161.667 1571.13 161.667 1607.5 179C1643.87 196.333 1680.23 196.333 1716.6 179C1752.97 161.667 1789.33 161.667 1825.7 179C1862.07 196.333 1898.43 196.333 1934.8 179C1971.17 161.667 2007.53 161.667 2043.9 179C2080.27 196.333 2116.63 196.333 2153 179"
        stroke="red" stroke-width="2" />
    <path
        d="M-29 194C7.36666 176.667 43.7333 176.667 80.1 194C116.467 211.333 152.833 211.333 189.2 194C225.567 176.667 261.933 176.667 298.3 194C334.667 211.333 371.033 211.333 407.4 194C443.767 176.667 480.133 176.667 516.5 194C552.867 211.333 589.233 211.333 625.6 194C661.967 176.667 698.333 176.667 734.7 194C771.067 211.333 807.433 211.333 843.8 194C880.167 176.667 916.533 176.667 952.9 194C989.267 211.333 1025.63 211.333 1062 194C1098.37 176.667 1134.73 176.667 1171.1 194C1207.47 211.333 1243.83 211.333 1280.2 194C1316.57 176.667 1352.93 176.667 1389.3 194C1425.67 211.333 1462.03 211.333 1498.4 194C1534.77 176.667 1571.13 176.667 1607.5 194C1643.87 211.333 1680.23 211.333 1716.6 194C1752.97 176.667 1789.33 176.667 1825.7 194C1862.07 211.333 1898.43 211.333 1934.8 194C1971.17 176.667 2007.53 176.667 2043.9 194C2080.27 211.333 2116.63 211.333 2153 194"
        stroke="red" stroke-width="2" />
    <path
        d="M-29 209C7.36666 191.667 43.7333 191.667 80.1 209C116.467 226.333 152.833 226.333 189.2 209C225.567 191.667 261.933 191.667 298.3 209C334.667 226.333 371.033 226.333 407.4 209C443.767 191.667 480.133 191.667 516.5 209C552.867 226.333 589.233 226.333 625.6 209C661.967 191.667 698.333 191.667 734.7 209C771.067 226.333 807.433 226.333 843.8 209C880.167 191.667 916.533 191.667 952.9 209C989.267 226.333 1025.63 226.333 1062 209C1098.37 191.667 1134.73 191.667 1171.1 209C1207.47 226.333 1243.83 226.333 1280.2 209C1316.57 191.667 1352.93 191.667 1389.3 209C1425.67 226.333 1462.03 226.333 1498.4 209C1534.77 191.667 1571.13 191.667 1607.5 209C1643.87 226.333 1680.23 226.333 1716.6 209C1752.97 191.667 1789.33 191.667 1825.7 209C1862.07 226.333 1898.43 226.333 1934.8 209C1971.17 191.667 2007.53 191.667 2043.9 209C2080.27 226.333 2116.63 226.333 2153 209"
        stroke="red" stroke-width="2" />
    <path
        d="M-29 224C7.36666 206.667 43.7333 206.667 80.1 224C116.467 241.333 152.833 241.333 189.2 224C225.567 206.667 261.933 206.667 298.3 224C334.667 241.333 371.033 241.333 407.4 224C443.767 206.667 480.133 206.667 516.5 224C552.867 241.333 589.233 241.333 625.6 224C661.967 206.667 698.333 206.667 734.7 224C771.067 241.333 807.433 241.333 843.8 224C880.167 206.667 916.533 206.667 952.9 224C989.267 241.333 1025.63 241.333 1062 224C1098.37 206.667 1134.73 206.667 1171.1 224C1207.47 241.333 1243.83 241.333 1280.2 224C1316.57 206.667 1352.93 206.667 1389.3 224C1425.67 241.333 1462.03 241.333 1498.4 224C1534.77 206.667 1571.13 206.667 1607.5 224C1643.87 241.333 1680.23 241.333 1716.6 224C1752.97 206.667 1789.33 206.667 1825.7 224C1862.07 241.333 1898.43 241.333 1934.8 224C1971.17 206.667 2007.53 206.667 2043.9 224C2080.27 241.333 2116.63 241.333 2153 224"
        stroke="red" stroke-width="2" />
    <path
        d="M-29 239C7.36666 221.667 43.7333 221.667 80.1 239C116.467 256.333 152.833 256.333 189.2 239C225.567 221.667 261.933 221.667 298.3 239C334.667 256.333 371.033 256.333 407.4 239C443.767 221.667 480.133 221.667 516.5 239C552.867 256.333 589.233 256.333 625.6 239C661.967 221.667 698.333 221.667 734.7 239C771.067 256.333 807.433 256.333 843.8 239C880.167 221.667 916.533 221.667 952.9 239C989.267 256.333 1025.63 256.333 1062 239C1098.37 221.667 1134.73 221.667 1171.1 239C1207.47 256.333 1243.83 256.333 1280.2 239C1316.57 221.667 1352.93 221.667 1389.3 239C1425.67 256.333 1462.03 256.333 1498.4 239C1534.77 221.667 1571.13 221.667 1607.5 239C1643.87 256.333 1680.23 256.333 1716.6 239C1752.97 221.667 1789.33 221.667 1825.7 239C1862.07 256.333 1898.43 256.333 1934.8 239C1971.17 221.667 2007.53 221.667 2043.9 239C2080.27 256.333 2116.63 256.333 2153 239"
        stroke="red" stroke-width="2" />
    <path
        d="M-29 254C7.36666 236.667 43.7333 236.667 80.1 254C116.467 271.333 152.833 271.333 189.2 254C225.567 236.667 261.933 236.667 298.3 254C334.667 271.333 371.033 271.333 407.4 254C443.767 236.667 480.133 236.667 516.5 254C552.867 271.333 589.233 271.333 625.6 254C661.967 236.667 698.333 236.667 734.7 254C771.067 271.333 807.433 271.333 843.8 254C880.167 236.667 916.533 236.667 952.9 254C989.267 271.333 1025.63 271.333 1062 254C1098.37 236.667 1134.73 236.667 1171.1 254C1207.47 271.333 1243.83 271.333 1280.2 254C1316.57 236.667 1352.93 236.667 1389.3 254C1425.67 271.333 1462.03 271.333 1498.4 254C1534.77 236.667 1571.13 236.667 1607.5 254C1643.87 271.333 1680.23 271.333 1716.6 254C1752.97 236.667 1789.33 236.667 1825.7 254C1862.07 271.333 1898.43 271.333 1934.8 254C1971.17 236.667 2007.53 236.667 2043.9 254C2080.27 271.333 2116.63 271.333 2153 254"
        stroke="red" stroke-width="2" />
    <path
        d="M-29 269C7.36666 251.667 43.7333 251.667 80.1 269C116.467 286.333 152.833 286.333 189.2 269C225.567 251.667 261.933 251.667 298.3 269C334.667 286.333 371.033 286.333 407.4 269C443.767 251.667 480.133 251.667 516.5 269C552.867 286.333 589.233 286.333 625.6 269C661.967 251.667 698.333 251.667 734.7 269C771.067 286.333 807.433 286.333 843.8 269C880.167 251.667 916.533 251.667 952.9 269C989.267 286.333 1025.63 286.333 1062 269C1098.37 251.667 1134.73 251.667 1171.1 269C1207.47 286.333 1243.83 286.333 1280.2 269C1316.57 251.667 1352.93 251.667 1389.3 269C1425.67 286.333 1462.03 286.333 1498.4 269C1534.77 251.667 1571.13 251.667 1607.5 269C1643.87 286.333 1680.23 286.333 1716.6 269C1752.97 251.667 1789.33 251.667 1825.7 269C1862.07 286.333 1898.43 286.333 1934.8 269C1971.17 251.667 2007.53 251.667 2043.9 269C2080.27 286.333 2116.63 286.333 2153 269"
        stroke="red" stroke-width="2" />
    <path
        d="M-29 284C7.36666 266.667 43.7333 266.667 80.1 284C116.467 301.333 152.833 301.333 189.2 284C225.567 266.667 261.933 266.667 298.3 284C334.667 301.333 371.033 301.333 407.4 284C443.767 266.667 480.133 266.667 516.5 284C552.867 301.333 589.233 301.333 625.6 284C661.967 266.667 698.333 266.667 734.7 284C771.067 301.333 807.433 301.333 843.8 284C880.167 266.667 916.533 266.667 952.9 284C989.267 301.333 1025.63 301.333 1062 284C1098.37 266.667 1134.73 266.667 1171.1 284C1207.47 301.333 1243.83 301.333 1280.2 284C1316.57 266.667 1352.93 266.667 1389.3 284C1425.67 301.333 1462.03 301.333 1498.4 284C1534.77 266.667 1571.13 266.667 1607.5 284C1643.87 301.333 1680.23 301.333 1716.6 284C1752.97 266.667 1789.33 266.667 1825.7 284C1862.07 301.333 1898.43 301.333 1934.8 284C1971.17 266.667 2007.53 266.667 2043.9 284C2080.27 301.333 2116.63 301.333 2153 284"
        stroke="red" stroke-width="2" />
    <path
        d="M-29 299C7.36666 281.667 43.7333 281.667 80.1 299C116.467 316.333 152.833 316.333 189.2 299C225.567 281.667 261.933 281.667 298.3 299C334.667 316.333 371.033 316.333 407.4 299C443.767 281.667 480.133 281.667 516.5 299C552.867 316.333 589.233 316.333 625.6 299C661.967 281.667 698.333 281.667 734.7 299C771.067 316.333 807.433 316.333 843.8 299C880.167 281.667 916.533 281.667 952.9 299C989.267 316.333 1025.63 316.333 1062 299C1098.37 281.667 1134.73 281.667 1171.1 299C1207.47 316.333 1243.83 316.333 1280.2 299C1316.57 281.667 1352.93 281.667 1389.3 299C1425.67 316.333 1462.03 316.333 1498.4 299C1534.77 281.667 1571.13 281.667 1607.5 299C1643.87 316.333 1680.23 316.333 1716.6 299C1752.97 281.667 1789.33 281.667 1825.7 299C1862.07 316.333 1898.43 316.333 1934.8 299C1971.17 281.667 2007.53 281.667 2043.9 299C2080.27 316.333 2116.63 316.333 2153 299"
        stroke="red" stroke-width="2" />
    <path
        d="M-29 314C7.36666 296.667 43.7333 296.667 80.1 314C116.467 331.333 152.833 331.333 189.2 314C225.567 296.667 261.933 296.667 298.3 314C334.667 331.333 371.033 331.333 407.4 314C443.767 296.667 480.133 296.667 516.5 314C552.867 331.333 589.233 331.333 625.6 314C661.967 296.667 698.333 296.667 734.7 314C771.067 331.333 807.433 331.333 843.8 314C880.167 296.667 916.533 296.667 952.9 314C989.267 331.333 1025.63 331.333 1062 314C1098.37 296.667 1134.73 296.667 1171.1 314C1207.47 331.333 1243.83 331.333 1280.2 314C1316.57 296.667 1352.93 296.667 1389.3 314C1425.67 331.333 1462.03 331.333 1498.4 314C1534.77 296.667 1571.13 296.667 1607.5 314C1643.87 331.333 1680.23 331.333 1716.6 314C1752.97 296.667 1789.33 296.667 1825.7 314C1862.07 331.333 1898.43 331.333 1934.8 314C1971.17 296.667 2007.53 296.667 2043.9 314C2080.27 331.333 2116.63 331.333 2153 314"
        stroke="red" stroke-width="2" />
    <path
        d="M-29 329C7.36666 311.667 43.7333 311.667 80.1 329C116.467 346.333 152.833 346.333 189.2 329C225.567 311.667 261.933 311.667 298.3 329C334.667 346.333 371.033 346.333 407.4 329C443.767 311.667 480.133 311.667 516.5 329C552.867 346.333 589.233 346.333 625.6 329C661.967 311.667 698.333 311.667 734.7 329C771.067 346.333 807.433 346.333 843.8 329C880.167 311.667 916.533 311.667 952.9 329C989.267 346.333 1025.63 346.333 1062 329C1098.37 311.667 1134.73 311.667 1171.1 329C1207.47 346.333 1243.83 346.333 1280.2 329C1316.57 311.667 1352.93 311.667 1389.3 329C1425.67 346.333 1462.03 346.333 1498.4 329C1534.77 311.667 1571.13 311.667 1607.5 329C1643.87 346.333 1680.23 346.333 1716.6 329C1752.97 311.667 1789.33 311.667 1825.7 329C1862.07 346.333 1898.43 346.333 1934.8 329C1971.17 311.667 2007.53 311.667 2043.9 329C2080.27 346.333 2116.63 346.333 2153 329"
        stroke="red" stroke-width="2" />
    <path
        d="M-29 344C7.36666 326.667 43.7333 326.667 80.1 344C116.467 361.333 152.833 361.333 189.2 344C225.567 326.667 261.933 326.667 298.3 344C334.667 361.333 371.033 361.333 407.4 344C443.767 326.667 480.133 326.667 516.5 344C552.867 361.333 589.233 361.333 625.6 344C661.967 326.667 698.333 326.667 734.7 344C771.067 361.333 807.433 361.333 843.8 344C880.167 326.667 916.533 326.667 952.9 344C989.267 361.333 1025.63 361.333 1062 344C1098.37 326.667 1134.73 326.667 1171.1 344C1207.47 361.333 1243.83 361.333 1280.2 344C1316.57 326.667 1352.93 326.667 1389.3 344C1425.67 361.333 1462.03 361.333 1498.4 344C1534.77 326.667 1571.13 326.667 1607.5 344C1643.87 361.333 1680.23 361.333 1716.6 344C1752.97 326.667 1789.33 326.667 1825.7 344C1862.07 361.333 1898.43 361.333 1934.8 344C1971.17 326.667 2007.53 326.667 2043.9 344C2080.27 361.333 2116.63 361.333 2153 344"
        stroke="red" stroke-width="2" />
    <path
        d="M-29 359C7.36666 341.667 43.7333 341.667 80.1 359C116.467 376.333 152.833 376.333 189.2 359C225.567 341.667 261.933 341.667 298.3 359C334.667 376.333 371.033 376.333 407.4 359C443.767 341.667 480.133 341.667 516.5 359C552.867 376.333 589.233 376.333 625.6 359C661.967 341.667 698.333 341.667 734.7 359C771.067 376.333 807.433 376.333 843.8 359C880.167 341.667 916.533 341.667 952.9 359C989.267 376.333 1025.63 376.333 1062 359C1098.37 341.667 1134.73 341.667 1171.1 359C1207.47 376.333 1243.83 376.333 1280.2 359C1316.57 341.667 1352.93 341.667 1389.3 359C1425.67 376.333 1462.03 376.333 1498.4 359C1534.77 341.667 1571.13 341.667 1607.5 359C1643.87 376.333 1680.23 376.333 1716.6 359C1752.97 341.667 1789.33 341.667 1825.7 359C1862.07 376.333 1898.43 376.333 1934.8 359C1971.17 341.667 2007.53 341.667 2043.9 359C2080.27 376.333 2116.63 376.333 2153 359"
        stroke="red" stroke-width="2" />
    <path
        d="M-29 374C7.36666 356.667 43.7333 356.667 80.1 374C116.467 391.333 152.833 391.333 189.2 374C225.567 356.667 261.933 356.667 298.3 374C334.667 391.333 371.033 391.333 407.4 374C443.767 356.667 480.133 356.667 516.5 374C552.867 391.333 589.233 391.333 625.6 374C661.967 356.667 698.333 356.667 734.7 374C771.067 391.333 807.433 391.333 843.8 374C880.167 356.667 916.533 356.667 952.9 374C989.267 391.333 1025.63 391.333 1062 374C1098.37 356.667 1134.73 356.667 1171.1 374C1207.47 391.333 1243.83 391.333 1280.2 374C1316.57 356.667 1352.93 356.667 1389.3 374C1425.67 391.333 1462.03 391.333 1498.4 374C1534.77 356.667 1571.13 356.667 1607.5 374C1643.87 391.333 1680.23 391.333 1716.6 374C1752.97 356.667 1789.33 356.667 1825.7 374C1862.07 391.333 1898.43 391.333 1934.8 374C1971.17 356.667 2007.53 356.667 2043.9 374C2080.27 391.333 2116.63 391.333 2153 374"
        stroke="red" stroke-width="2" />
    <path
        d="M-29 389C7.36666 371.667 43.7333 371.667 80.1 389C116.467 406.333 152.833 406.333 189.2 389C225.567 371.667 261.933 371.667 298.3 389C334.667 406.333 371.033 406.333 407.4 389C443.767 371.667 480.133 371.667 516.5 389C552.867 406.333 589.233 406.333 625.6 389C661.967 371.667 698.333 371.667 734.7 389C771.067 406.333 807.433 406.333 843.8 389C880.167 371.667 916.533 371.667 952.9 389C989.267 406.333 1025.63 406.333 1062 389C1098.37 371.667 1134.73 371.667 1171.1 389C1207.47 406.333 1243.83 406.333 1280.2 389C1316.57 371.667 1352.93 371.667 1389.3 389C1425.67 406.333 1462.03 406.333 1498.4 389C1534.77 371.667 1571.13 371.667 1607.5 389C1643.87 406.333 1680.23 406.333 1716.6 389C1752.97 371.667 1789.33 371.667 1825.7 389C1862.07 406.333 1898.43 406.333 1934.8 389C1971.17 371.667 2007.53 371.667 2043.9 389C2080.27 406.333 2116.63 406.333 2153 389"
        stroke="red" stroke-width="2" />
    <path
        d="M-29 404C7.36666 386.667 43.7333 386.667 80.1 404C116.467 421.333 152.833 421.333 189.2 404C225.567 386.667 261.933 386.667 298.3 404C334.667 421.333 371.033 421.333 407.4 404C443.767 386.667 480.133 386.667 516.5 404C552.867 421.333 589.233 421.333 625.6 404C661.967 386.667 698.333 386.667 734.7 404C771.067 421.333 807.433 421.333 843.8 404C880.167 386.667 916.533 386.667 952.9 404C989.267 421.333 1025.63 421.333 1062 404C1098.37 386.667 1134.73 386.667 1171.1 404C1207.47 421.333 1243.83 421.333 1280.2 404C1316.57 386.667 1352.93 386.667 1389.3 404C1425.67 421.333 1462.03 421.333 1498.4 404C1534.77 386.667 1571.13 386.667 1607.5 404C1643.87 421.333 1680.23 421.333 1716.6 404C1752.97 386.667 1789.33 386.667 1825.7 404C1862.07 421.333 1898.43 421.333 1934.8 404C1971.17 386.667 2007.53 386.667 2043.9 404C2080.27 421.333 2116.63 421.333 2153 404"
        stroke="red" stroke-width="2" />
    <path
        d="M-29 419C7.36666 401.667 43.7333 401.667 80.1 419C116.467 436.333 152.833 436.333 189.2 419C225.567 401.667 261.933 401.667 298.3 419C334.667 436.333 371.033 436.333 407.4 419C443.767 401.667 480.133 401.667 516.5 419C552.867 436.333 589.233 436.333 625.6 419C661.967 401.667 698.333 401.667 734.7 419C771.067 436.333 807.433 436.333 843.8 419C880.167 401.667 916.533 401.667 952.9 419C989.267 436.333 1025.63 436.333 1062 419C1098.37 401.667 1134.73 401.667 1171.1 419C1207.47 436.333 1243.83 436.333 1280.2 419C1316.57 401.667 1352.93 401.667 1389.3 419C1425.67 436.333 1462.03 436.333 1498.4 419C1534.77 401.667 1571.13 401.667 1607.5 419C1643.87 436.333 1680.23 436.333 1716.6 419C1752.97 401.667 1789.33 401.667 1825.7 419C1862.07 436.333 1898.43 436.333 1934.8 419C1971.17 401.667 2007.53 401.667 2043.9 419C2080.27 436.333 2116.63 436.333 2153 419"
        stroke="red" stroke-width="2" />
    <path
        d="M-29 434C7.36666 416.667 43.7333 416.667 80.1 434C116.467 451.333 152.833 451.333 189.2 434C225.567 416.667 261.933 416.667 298.3 434C334.667 451.333 371.033 451.333 407.4 434C443.767 416.667 480.133 416.667 516.5 434C552.867 451.333 589.233 451.333 625.6 434C661.967 416.667 698.333 416.667 734.7 434C771.067 451.333 807.433 451.333 843.8 434C880.167 416.667 916.533 416.667 952.9 434C989.267 451.333 1025.63 451.333 1062 434C1098.37 416.667 1134.73 416.667 1171.1 434C1207.47 451.333 1243.83 451.333 1280.2 434C1316.57 416.667 1352.93 416.667 1389.3 434C1425.67 451.333 1462.03 451.333 1498.4 434C1534.77 416.667 1571.13 416.667 1607.5 434C1643.87 451.333 1680.23 451.333 1716.6 434C1752.97 416.667 1789.33 416.667 1825.7 434C1862.07 451.333 1898.43 451.333 1934.8 434C1971.17 416.667 2007.53 416.667 2043.9 434C2080.27 451.333 2116.63 451.333 2153 434"
        stroke="red" stroke-width="2" />
    <path
        d="M-29 449C7.36666 431.667 43.7333 431.667 80.1 449C116.467 466.333 152.833 466.333 189.2 449C225.567 431.667 261.933 431.667 298.3 449C334.667 466.333 371.033 466.333 407.4 449C443.767 431.667 480.133 431.667 516.5 449C552.867 466.333 589.233 466.333 625.6 449C661.967 431.667 698.333 431.667 734.7 449C771.067 466.333 807.433 466.333 843.8 449C880.167 431.667 916.533 431.667 952.9 449C989.267 466.333 1025.63 466.333 1062 449C1098.37 431.667 1134.73 431.667 1171.1 449C1207.47 466.333 1243.83 466.333 1280.2 449C1316.57 431.667 1352.93 431.667 1389.3 449C1425.67 466.333 1462.03 466.333 1498.4 449C1534.77 431.667 1571.13 431.667 1607.5 449C1643.87 466.333 1680.23 466.333 1716.6 449C1752.97 431.667 1789.33 431.667 1825.7 449C1862.07 466.333 1898.43 466.333 1934.8 449C1971.17 431.667 2007.53 431.667 2043.9 449C2080.27 466.333 2116.63 466.333 2153 449"
        stroke="red" stroke-width="2" />
    <path
        d="M-29 464C7.36666 446.667 43.7333 446.667 80.1 464C116.467 481.333 152.833 481.333 189.2 464C225.567 446.667 261.933 446.667 298.3 464C334.667 481.333 371.033 481.333 407.4 464C443.767 446.667 480.133 446.667 516.5 464C552.867 481.333 589.233 481.333 625.6 464C661.967 446.667 698.333 446.667 734.7 464C771.067 481.333 807.433 481.333 843.8 464C880.167 446.667 916.533 446.667 952.9 464C989.267 481.333 1025.63 481.333 1062 464C1098.37 446.667 1134.73 446.667 1171.1 464C1207.47 481.333 1243.83 481.333 1280.2 464C1316.57 446.667 1352.93 446.667 1389.3 464C1425.67 481.333 1462.03 481.333 1498.4 464C1534.77 446.667 1571.13 446.667 1607.5 464C1643.87 481.333 1680.23 481.333 1716.6 464C1752.97 446.667 1789.33 446.667 1825.7 464C1862.07 481.333 1898.43 481.333 1934.8 464C1971.17 446.667 2007.53 446.667 2043.9 464C2080.27 481.333 2116.63 481.333 2153 464"
        stroke="red" stroke-width="2" />
    <path
        d="M-29 479C7.36666 461.667 43.7333 461.667 80.1 479C116.467 496.333 152.833 496.333 189.2 479C225.567 461.667 261.933 461.667 298.3 479C334.667 496.333 371.033 496.333 407.4 479C443.767 461.667 480.133 461.667 516.5 479C552.867 496.333 589.233 496.333 625.6 479C661.967 461.667 698.333 461.667 734.7 479C771.067 496.333 807.433 496.333 843.8 479C880.167 461.667 916.533 461.667 952.9 479C989.267 496.333 1025.63 496.333 1062 479C1098.37 461.667 1134.73 461.667 1171.1 479C1207.47 496.333 1243.83 496.333 1280.2 479C1316.57 461.667 1352.93 461.667 1389.3 479C1425.67 496.333 1462.03 496.333 1498.4 479C1534.77 461.667 1571.13 461.667 1607.5 479C1643.87 496.333 1680.23 496.333 1716.6 479C1752.97 461.667 1789.33 461.667 1825.7 479C1862.07 496.333 1898.43 496.333 1934.8 479C1971.17 461.667 2007.53 461.667 2043.9 479C2080.27 496.333 2116.63 496.333 2153 479"
        stroke="red" stroke-width="2" />
    <path
        d="M-29 494C7.36666 476.667 43.7333 476.667 80.1 494C116.467 511.333 152.833 511.333 189.2 494C225.567 476.667 261.933 476.667 298.3 494C334.667 511.333 371.033 511.333 407.4 494C443.767 476.667 480.133 476.667 516.5 494C552.867 511.333 589.233 511.333 625.6 494C661.967 476.667 698.333 476.667 734.7 494C771.067 511.333 807.433 511.333 843.8 494C880.167 476.667 916.533 476.667 952.9 494C989.267 511.333 1025.63 511.333 1062 494C1098.37 476.667 1134.73 476.667 1171.1 494C1207.47 511.333 1243.83 511.333 1280.2 494C1316.57 476.667 1352.93 476.667 1389.3 494C1425.67 511.333 1462.03 511.333 1498.4 494C1534.77 476.667 1571.13 476.667 1607.5 494C1643.87 511.333 1680.23 511.333 1716.6 494C1752.97 476.667 1789.33 476.667 1825.7 494C1862.07 511.333 1898.43 511.333 1934.8 494C1971.17 476.667 2007.53 476.667 2043.9 494C2080.27 511.333 2116.63 511.333 2153 494"
        stroke="red" stroke-width="2" />
    <path
        d="M-29 509C7.36666 491.667 43.7333 491.667 80.1 509C116.467 526.333 152.833 526.333 189.2 509C225.567 491.667 261.933 491.667 298.3 509C334.667 526.333 371.033 526.333 407.4 509C443.767 491.667 480.133 491.667 516.5 509C552.867 526.333 589.233 526.333 625.6 509C661.967 491.667 698.333 491.667 734.7 509C771.067 526.333 807.433 526.333 843.8 509C880.167 491.667 916.533 491.667 952.9 509C989.267 526.333 1025.63 526.333 1062 509C1098.37 491.667 1134.73 491.667 1171.1 509C1207.47 526.333 1243.83 526.333 1280.2 509C1316.57 491.667 1352.93 491.667 1389.3 509C1425.67 526.333 1462.03 526.333 1498.4 509C1534.77 491.667 1571.13 491.667 1607.5 509C1643.87 526.333 1680.23 526.333 1716.6 509C1752.97 491.667 1789.33 491.667 1825.7 509C1862.07 526.333 1898.43 526.333 1934.8 509C1971.17 491.667 2007.53 491.667 2043.9 509C2080.27 526.333 2116.63 526.333 2153 509"
        stroke="red" stroke-width="2" />
    <path
        d="M-29 524C7.36666 506.667 43.7333 506.667 80.1 524C116.467 541.333 152.833 541.333 189.2 524C225.567 506.667 261.933 506.667 298.3 524C334.667 541.333 371.033 541.333 407.4 524C443.767 506.667 480.133 506.667 516.5 524C552.867 541.333 589.233 541.333 625.6 524C661.967 506.667 698.333 506.667 734.7 524C771.067 541.333 807.433 541.333 843.8 524C880.167 506.667 916.533 506.667 952.9 524C989.267 541.333 1025.63 541.333 1062 524C1098.37 506.667 1134.73 506.667 1171.1 524C1207.47 541.333 1243.83 541.333 1280.2 524C1316.57 506.667 1352.93 506.667 1389.3 524C1425.67 541.333 1462.03 541.333 1498.4 524C1534.77 506.667 1571.13 506.667 1607.5 524C1643.87 541.333 1680.23 541.333 1716.6 524C1752.97 506.667 1789.33 506.667 1825.7 524C1862.07 541.333 1898.43 541.333 1934.8 524C1971.17 506.667 2007.53 506.667 2043.9 524C2080.27 541.333 2116.63 541.333 2153 524"
        stroke="red" stroke-width="2" />
    <path
        d="M-29 539C7.36666 521.667 43.7333 521.667 80.1 539C116.467 556.333 152.833 556.333 189.2 539C225.567 521.667 261.933 521.667 298.3 539C334.667 556.333 371.033 556.333 407.4 539C443.767 521.667 480.133 521.667 516.5 539C552.867 556.333 589.233 556.333 625.6 539C661.967 521.667 698.333 521.667 734.7 539C771.067 556.333 807.433 556.333 843.8 539C880.167 521.667 916.533 521.667 952.9 539C989.267 556.333 1025.63 556.333 1062 539C1098.37 521.667 1134.73 521.667 1171.1 539C1207.47 556.333 1243.83 556.333 1280.2 539C1316.57 521.667 1352.93 521.667 1389.3 539C1425.67 556.333 1462.03 556.333 1498.4 539C1534.77 521.667 1571.13 521.667 1607.5 539C1643.87 556.333 1680.23 556.333 1716.6 539C1752.97 521.667 1789.33 521.667 1825.7 539C1862.07 556.333 1898.43 556.333 1934.8 539C1971.17 521.667 2007.53 521.667 2043.9 539C2080.27 556.333 2116.63 556.333 2153 539"
        stroke="red" stroke-width="2" />
    <path
        d="M-29 554C7.36666 536.667 43.7333 536.667 80.1 554C116.467 571.333 152.833 571.333 189.2 554C225.567 536.667 261.933 536.667 298.3 554C334.667 571.333 371.033 571.333 407.4 554C443.767 536.667 480.133 536.667 516.5 554C552.867 571.333 589.233 571.333 625.6 554C661.967 536.667 698.333 536.667 734.7 554C771.067 571.333 807.433 571.333 843.8 554C880.167 536.667 916.533 536.667 952.9 554C989.267 571.333 1025.63 571.333 1062 554C1098.37 536.667 1134.73 536.667 1171.1 554C1207.47 571.333 1243.83 571.333 1280.2 554C1316.57 536.667 1352.93 536.667 1389.3 554C1425.67 571.333 1462.03 571.333 1498.4 554C1534.77 536.667 1571.13 536.667 1607.5 554C1643.87 571.333 1680.23 571.333 1716.6 554C1752.97 536.667 1789.33 536.667 1825.7 554C1862.07 571.333 1898.43 571.333 1934.8 554C1971.17 536.667 2007.53 536.667 2043.9 554C2080.27 571.333 2116.63 571.333 2153 554"
        stroke="red" stroke-width="2" />
    <path
        d="M-29 569C7.36666 551.667 43.7333 551.667 80.1 569C116.467 586.333 152.833 586.333 189.2 569C225.567 551.667 261.933 551.667 298.3 569C334.667 586.333 371.033 586.333 407.4 569C443.767 551.667 480.133 551.667 516.5 569C552.867 586.333 589.233 586.333 625.6 569C661.967 551.667 698.333 551.667 734.7 569C771.067 586.333 807.433 586.333 843.8 569C880.167 551.667 916.533 551.667 952.9 569C989.267 586.333 1025.63 586.333 1062 569C1098.37 551.667 1134.73 551.667 1171.1 569C1207.47 586.333 1243.83 586.333 1280.2 569C1316.57 551.667 1352.93 551.667 1389.3 569C1425.67 586.333 1462.03 586.333 1498.4 569C1534.77 551.667 1571.13 551.667 1607.5 569C1643.87 586.333 1680.23 586.333 1716.6 569C1752.97 551.667 1789.33 551.667 1825.7 569C1862.07 586.333 1898.43 586.333 1934.8 569C1971.17 551.667 2007.53 551.667 2043.9 569C2080.27 586.333 2116.63 586.333 2153 569"
        stroke="red" stroke-width="2" />
    <path
        d="M-29 584C7.36666 566.667 43.7333 566.667 80.1 584C116.467 601.333 152.833 601.333 189.2 584C225.567 566.667 261.933 566.667 298.3 584C334.667 601.333 371.033 601.333 407.4 584C443.767 566.667 480.133 566.667 516.5 584C552.867 601.333 589.233 601.333 625.6 584C661.967 566.667 698.333 566.667 734.7 584C771.067 601.333 807.433 601.333 843.8 584C880.167 566.667 916.533 566.667 952.9 584C989.267 601.333 1025.63 601.333 1062 584C1098.37 566.667 1134.73 566.667 1171.1 584C1207.47 601.333 1243.83 601.333 1280.2 584C1316.57 566.667 1352.93 566.667 1389.3 584C1425.67 601.333 1462.03 601.333 1498.4 584C1534.77 566.667 1571.13 566.667 1607.5 584C1643.87 601.333 1680.23 601.333 1716.6 584C1752.97 566.667 1789.33 566.667 1825.7 584C1862.07 601.333 1898.43 601.333 1934.8 584C1971.17 566.667 2007.53 566.667 2043.9 584C2080.27 601.333 2116.63 601.333 2153 584"
        stroke="red" stroke-width="2" />
    <path
        d="M-29 599C7.36666 581.667 43.7333 581.667 80.1 599C116.467 616.333 152.833 616.333 189.2 599C225.567 581.667 261.933 581.667 298.3 599C334.667 616.333 371.033 616.333 407.4 599C443.767 581.667 480.133 581.667 516.5 599C552.867 616.333 589.233 616.333 625.6 599C661.967 581.667 698.333 581.667 734.7 599C771.067 616.333 807.433 616.333 843.8 599C880.167 581.667 916.533 581.667 952.9 599C989.267 616.333 1025.63 616.333 1062 599C1098.37 581.667 1134.73 581.667 1171.1 599C1207.47 616.333 1243.83 616.333 1280.2 599C1316.57 581.667 1352.93 581.667 1389.3 599C1425.67 616.333 1462.03 616.333 1498.4 599C1534.77 581.667 1571.13 581.667 1607.5 599C1643.87 616.333 1680.23 616.333 1716.6 599C1752.97 581.667 1789.33 581.667 1825.7 599C1862.07 616.333 1898.43 616.333 1934.8 599C1971.17 581.667 2007.53 581.667 2043.9 599C2080.27 616.333 2116.63 616.333 2153 599"
        stroke="red" stroke-width="2" />
    <path
        d="M-29 614C7.36666 596.667 43.7333 596.667 80.1 614C116.467 631.333 152.833 631.333 189.2 614C225.567 596.667 261.933 596.667 298.3 614C334.667 631.333 371.033 631.333 407.4 614C443.767 596.667 480.133 596.667 516.5 614C552.867 631.333 589.233 631.333 625.6 614C661.967 596.667 698.333 596.667 734.7 614C771.067 631.333 807.433 631.333 843.8 614C880.167 596.667 916.533 596.667 952.9 614C989.267 631.333 1025.63 631.333 1062 614C1098.37 596.667 1134.73 596.667 1171.1 614C1207.47 631.333 1243.83 631.333 1280.2 614C1316.57 596.667 1352.93 596.667 1389.3 614C1425.67 631.333 1462.03 631.333 1498.4 614C1534.77 596.667 1571.13 596.667 1607.5 614C1643.87 631.333 1680.23 631.333 1716.6 614C1752.97 596.667 1789.33 596.667 1825.7 614C1862.07 631.333 1898.43 631.333 1934.8 614C1971.17 596.667 2007.53 596.667 2043.9 614C2080.27 631.333 2116.63 631.333 2153 614"
        stroke="red" stroke-width="2" />
    <path
        d="M-29 629C7.36666 611.667 43.7333 611.667 80.1 629C116.467 646.333 152.833 646.333 189.2 629C225.567 611.667 261.933 611.667 298.3 629C334.667 646.333 371.033 646.333 407.4 629C443.767 611.667 480.133 611.667 516.5 629C552.867 646.333 589.233 646.333 625.6 629C661.967 611.667 698.333 611.667 734.7 629C771.067 646.333 807.433 646.333 843.8 629C880.167 611.667 916.533 611.667 952.9 629C989.267 646.333 1025.63 646.333 1062 629C1098.37 611.667 1134.73 611.667 1171.1 629C1207.47 646.333 1243.83 646.333 1280.2 629C1316.57 611.667 1352.93 611.667 1389.3 629C1425.67 646.333 1462.03 646.333 1498.4 629C1534.77 611.667 1571.13 611.667 1607.5 629C1643.87 646.333 1680.23 646.333 1716.6 629C1752.97 611.667 1789.33 611.667 1825.7 629C1862.07 646.333 1898.43 646.333 1934.8 629C1971.17 611.667 2007.53 611.667 2043.9 629C2080.27 646.333 2116.63 646.333 2153 629"
        stroke="red" stroke-width="2" />
    <path
        d="M-29 644C7.36666 626.667 43.7333 626.667 80.1 644C116.467 661.333 152.833 661.333 189.2 644C225.567 626.667 261.933 626.667 298.3 644C334.667 661.333 371.033 661.333 407.4 644C443.767 626.667 480.133 626.667 516.5 644C552.867 661.333 589.233 661.333 625.6 644C661.967 626.667 698.333 626.667 734.7 644C771.067 661.333 807.433 661.333 843.8 644C880.167 626.667 916.533 626.667 952.9 644C989.267 661.333 1025.63 661.333 1062 644C1098.37 626.667 1134.73 626.667 1171.1 644C1207.47 661.333 1243.83 661.333 1280.2 644C1316.57 626.667 1352.93 626.667 1389.3 644C1425.67 661.333 1462.03 661.333 1498.4 644C1534.77 626.667 1571.13 626.667 1607.5 644C1643.87 661.333 1680.23 661.333 1716.6 644C1752.97 626.667 1789.33 626.667 1825.7 644C1862.07 661.333 1898.43 661.333 1934.8 644C1971.17 626.667 2007.53 626.667 2043.9 644C2080.27 661.333 2116.63 661.333 2153 644"
        stroke="red" stroke-width="2" />
    <path
        d="M-29 659C7.36666 641.667 43.7333 641.667 80.1 659C116.467 676.333 152.833 676.333 189.2 659C225.567 641.667 261.933 641.667 298.3 659C334.667 676.333 371.033 676.333 407.4 659C443.767 641.667 480.133 641.667 516.5 659C552.867 676.333 589.233 676.333 625.6 659C661.967 641.667 698.333 641.667 734.7 659C771.067 676.333 807.433 676.333 843.8 659C880.167 641.667 916.533 641.667 952.9 659C989.267 676.333 1025.63 676.333 1062 659C1098.37 641.667 1134.73 641.667 1171.1 659C1207.47 676.333 1243.83 676.333 1280.2 659C1316.57 641.667 1352.93 641.667 1389.3 659C1425.67 676.333 1462.03 676.333 1498.4 659C1534.77 641.667 1571.13 641.667 1607.5 659C1643.87 676.333 1680.23 676.333 1716.6 659C1752.97 641.667 1789.33 641.667 1825.7 659C1862.07 676.333 1898.43 676.333 1934.8 659C1971.17 641.667 2007.53 641.667 2043.9 659C2080.27 676.333 2116.63 676.333 2153 659"
        stroke="red" stroke-width="2" />
</svg>